<?xml version="1.0" standalone="no"?>
<!DOCTYPE svg PUBLIC "-//W3C//DTD SVG 1.1//EN" "http://www.w3.org/Graphics/SVG/1.1/DTD/svg11.dtd" >
<!--
2013-9-30: Created.
-->
<svg>
<metadata>
Created by iconfont
</metadata>
<defs>

<font id="iconfont" horiz-adv-x="1024" >
  <font-face
    font-family="iconfont"
    font-weight="500"
    font-stretch="normal"
    units-per-em="1024"
    ascent="896"
    descent="-128"
  />
    <missing-glyph />
    
    <glyph glyph-name="x" unicode="x" horiz-adv-x="1001"
d="M281 543q-27 -1 -53 -1h-83q-18 0 -36.5 -6t-32.5 -18.5t-23 -32t-9 -45.5v-76h912v41q0 16 -0.5 30t-0.5 18q0 13 -5 29t-17 29.5t-31.5 22.5t-49.5 9h-133v-97h-438v97zM955 310v-52q0 -23 0.5 -52t0.5 -58t-10.5 -47.5t-26 -30t-33 -16t-31.5 -4.5q-14 -1 -29.5 -0.5
t-29.5 0.5h-32l-45 128h-439l-44 -128h-29h-34q-20 0 -45 1q-25 0 -41 9.5t-25.5 23t-13.5 29.5t-4 30v167h911zM163 247q-12 0 -21 -8.5t-9 -21.5t9 -21.5t21 -8.5q13 0 22 8.5t9 21.5t-9 21.5t-22 8.5zM316 123q-8 -26 -14 -48q-5 -19 -10.5 -37t-7.5 -25t-3 -15t1 -14.5
t9.5 -10.5t21.5 -4h37h67h81h80h64h36q23 0 34 12t2 38q-5 13 -9.5 30.5t-9.5 34.5q-5 19 -11 39h-368zM336 498v228q0 11 2.5 23t10 21.5t20.5 15.5t34 6h188q31 0 51.5 -14.5t20.5 -52.5v-227h-327z" />
    

    
    <glyph glyph-name="bianji" unicode="&#58894;" d="M851.3685 611.5578l-50.274 50.2779c-38.2537 38.2561-100.2802 38.2561-138.5369 0l-36.2439-36.2434 188.8159-188.813 36.239 36.2364C889.6232 511.2818 889.6232 573.3087 851.3685 611.5578zM324.6855 136.0362v50.87150911681879l-68.5364 68.5295-4.9798-4.9806c-15.768-15.7643-25.0201-35.5699-27.7903-56.083l-14.5278-49.6463-9.9317-5.913-35.1716-165.0941 186.7602 32.6888 9.508 17.9268 60.2967 18.9541 1.1223 3.8244c6.6008 4.0023 12.8398 8.834 18.5422 14.5361l4.9888 4.9886L375.5611 136.0362H324.685500021986zM283.6686 282.9576l41.0159-41.0122v0.37174795488658685h32.65423190850618v-73.61808693705667h73.61518074504616v-32.66185526213227h-0.3497775414836164l41.8824-41.8776 321.2867 321.2652L604.9513 604.2307 283.6686 282.9576z"  horiz-adv-x="1000" />

    
    <glyph glyph-name="tuichu" unicode="&#58919;" d="M1000 365 808.9988 188.9987v113.99875H495v124.005h313.99875000000003v113.99875L1000 365zM673.9988 758.9987H97.9975l307.0025-130v-616.00125h268.99875000000003V261.00125h45v-290H405V-200L0-28.9988V800h718.99875v-332.00249999999994h-45V758.99875L673.9988 758.9987zM673.9988 758.9987"  horiz-adv-x="1000" />

    
    <glyph glyph-name="shouye" unicode="&#58884;" d="M838.668 341.584l-321.154 344.25c-0.257 0.259-6.271 7.094-14.762 7.094-9.994 0-14.717-6.834-14.972-7.094l-321.157-344.25h0.587l-25.983-27.94v-379.981c0 0 29.61-0.688 66.166-0.688h166.18c-0.156 1.953-0.252 3.929-0.252 5.928v253.514c0 36.572 27.088 66.226 60.489 66.226h139.793c33.401 0 60.494-29.655 60.494-66.226v-253.516c0-1.999-0.097-3.975-0.258-5.928h163.947c36.56 0 66.202 0.688 66.202 0.688v379.983l-25.983 27.94h0.663zM577.303 830.973c-41.433 41.512-108.653 41.512-150.085 0l-422.006-422.631c15.618-30.444 43.5-53.539 77.112-62.757l398.947 397.805c2.494 2.477 4.934 4.655 7.344 6.478 4.795 4.297 9.425 6.095 14.032 5.92 4.607 0.174 9.237-1.623 14.033-5.92 2.412-1.823 4.851-3.999 7.345-6.478l399.010-397.865c33.452 9.098 61.24 31.94 76.966 62.097l-422.698 423.351z"  horiz-adv-x="1000" />

    
    <glyph glyph-name="cunchu" unicode="&#58966;" d="M209.6 149.28 209.6 576.992l604.8 0 0-427.776c50.048 0 90.688 35.904 90.688 80.192L905.088 576.992c0 44.288-40.64 80.192-90.688 80.192l-604.8 0c-50.048 0-90.688-35.904-90.688-80.192l0-347.584C118.912 185.12 159.552 149.28 209.6 149.28zM905.088 95.776 118.912 95.776c-33.408 0-60.48-23.936-60.48-53.44 0-29.568 57.28-53.504 90.688-53.504l725.696 0c33.344 0 90.752 23.936 90.752 53.504C965.568 71.84 938.432 95.776 905.088 95.776zM602.752 15.584 421.312 15.584c-16.704 0-30.208 6.016-30.208 13.312 0 7.424 13.504 13.44 30.208 13.44l181.44 0c16.704 0 30.208-6.016 30.208-13.44C632.96 21.536 619.456 15.584 602.752 15.584zM629.76 491.552 449.92 331.744 394.112 381.344c-11.776 10.432-30.784 10.432-42.56 0L308.992 343.52c-11.776-10.432-11.776-27.392 0-37.824l106.432-94.528C423.104 204.384 438.912 196.96 449.344 196.96c18.688 0 20.16 4.928 31.424 11.008l234.112 208c11.776 10.496 11.776 27.392 0 37.824l-42.56 37.824C660.544 501.984 641.472 501.984 629.76 491.552z"  horiz-adv-x="1024" />

    
    <glyph glyph-name="fujian" unicode="&#58939;" d="M697.83 568.952l-64.952 64.922-324.808-324.742c-53.814-53.792-53.814-141.048 0-194.844 53.804-53.792 141.060-53.792 194.874 0l389.772 389.708c89.712 89.662 89.712 235.062 0 324.726-89.666 89.704-235.114 89.704-324.784 0l-409.228-409.178c-0.29-0.304-0.612-0.576-0.876-0.846-125.102-125.096-125.102-327.856 0-452.906 125.054-125.056 327.868-125.056 452.988 0 0.274 0.274 0.516 0.566 0.82 0.876l0.032-0.034 279.332 279.292-64.986 64.92-279.332-279.262c-0.296-0.268-0.562-0.57-0.846-0.844-89.074-89.058-233.98-89.058-323.076 0-89.062 89.042-89.062 233.922 0 322.978 0.304 0.304 0.604 0.582 0.888 0.846l-0.046 0.060 409.28 409.166c53.71 53.738 141.142 53.738 194.884 0 53.712-53.734 53.712-141.148 0-194.84l-389.77-389.7c-17.936-17.922-47.054-17.922-64.972 0-17.894 17.886-17.894 47.032 0 64.92l324.806 324.782z"  horiz-adv-x="1024" />

    
    <glyph glyph-name="yonghu" unicode="&#58886;" d="M341.296 408.115c-62.589 28.118-104.402 90.171-104.402 163.231 0 99.28 80.485 179.762 179.77 179.762s179.77-80.482 179.77-179.762c0-72.85-41.693-134.802-103.995-163.038 154.102-33.543 270.8-167.271 278.44-329.531l-708.162-0.465c9.787 160.141 125.863 295.634 278.58 329.803zM566.119 730.305c41.409-40.134 67.145-96.343 67.145-158.564 0-57.474-21.96-109.818-57.946-149.103l0.005-0.001c112.046-48.194 196.746-147.83 224.358-269.175v0.004l160.123 0.105c-6.79 144.208-110.505 263.059-247.464 292.871 55.368 25.095 92.425 80.156 92.425 144.9 0 88.235-71.531 159.764-159.772 159.764-29.399 0-56.945-7.941-80.608-21.794M559.656 711.945z"  horiz-adv-x="1024" />

    
    <glyph glyph-name="zhongzhi" unicode="&#59004;" d="M634.245586 495.22124l-290.303397 0.874927L343.942189 720.206364 63.771985 411.836111l280.1262-307.931255L343.898185 328.01403l290.347401-0.656963c89.997328 0 163.01117-75.17719 163.01117-167.864172 0-92.728938-83.168526-111.6161-173.166877-111.6161L343.942189 47.876796 343.942189-120.204317l280.14769 0c180.039683 0 336.135066 94.260827 336.135066 279.698237C960.224945 344.932352 814.329272 495.22124 634.245586 495.22124z"  horiz-adv-x="1024" />

    
    <glyph glyph-name="pchuizong" unicode="&#58980;" d="M953.929 643.023v171.162l-872.747-859.32h872.747l-0 104.506h-106.148v32.694h106.148v34.821h-70.772v34.862h70.772v34.822h-70.772l-0 32.695h70.772v34.843h-106.148v34.842h106.148v34.822h-70.772v34.843h70.772v32.694h-70.772v34.842h70.772v34.822l-106.148 0v34.843h106.148v32.695h-70.772v34.842h70.772v34.822h-70.772v34.853l70.772-0zM812.406 92.065h-396.579l396.579 390.446v-390.446zM592.624 713.618l-50.147 50.79-17.085-17.288 50.148-50.801 17.084 17.299zM126.583 248.741c12.256-12.397 32.082-12.397 44.317 0l282.718 324.668-50.72 51.363-319.548-287.36c-12.235-12.398-12.235-32.489 0-44.887l43.232-43.784zM129.447 328.819c9.432 9.555 24.716 9.555 34.148 0s9.432-25.042 0-34.575c-9.432-9.575-24.716-9.575-34.148 0-9.432 9.534-9.432 25.042 0 34.575zM541.166 522.365l84.623 85.724-182.606 184.922-99.457 16.562 14.834-102.256 182.606-184.952z"  horiz-adv-x="1024" />

    
    <glyph glyph-name="shoucang1" unicode="&#58896;" d="M507.612 742.572c-11.287 0-20.219-3.343-26.677-10.176-6.577-6.687-11.667-14.873-15.132-24.178L363.341 471.656 88.32 446.967c-6.458-1.237-12.406-4.097-17.739-8.794-5.339-4.726-8.698-11.169-9.812-19.481-1.236-8.186 0.755-16.26 5.718-24.201 5.091-7.924 11.16-15.12 18.222-21.711l9.812-8.312 22.705-19.479c9.304-7.922 19.598-16.741 31.255-26.411l35.104-29.531c27.913-23.551 59.289-50.346 94.4-80.363l-30.262-123.563c-4.214-15.869-8.19-31.375-12.031-46.764-3.839-15.262-7.33-29.263-10.299-41.936-2.979-12.649-5.583-23.429-7.933-32.611l-4.468-17.248c-1.25-5.213-0.618-10.419 1.733-15.384 2.36-4.968 6.078-9.306 11.169-12.771 4.965-3.609 10.659-5.718 16.861-6.71 1.381-0.195 2.75-0.268 4.116-0.268 4.775 0 9.492 1.163 14.129 3.367 2.979 1.259 8.809 4.213 17.371 8.818 8.677 4.7 18.849 10.662 30.759 17.733 11.787 7.077 25.069 14.635 39.583 22.946 14.507 8.187 29.264 16.499 44.021 24.689 34.5 19.355 72.701 41.43 114.884 66.115l232.342-134.1 12.916-4.822c5.575-2.107 9.909-3.1 12.889-3.1 8.941 0 16.873 1.986 24.071 5.693 7.061 3.85 9.805 11.65 7.935 23.452-0.619 2.353-1.731 8.064-3.467 17.248l-6.71 32.972c-2.728 13.039-5.572 27.43-8.43 43.3-2.979 15.89-6.322 31.761-9.802 47.63-7.814 37.723-16.62 79.786-26.783 126.154L926.916 373.65c7.689 8.94 14.016 16.381 19.103 22.581 5.086 6.201 7.57 13.399 7.57 21.589 0 8.794-2.359 15.263-7.077 19.478-4.844 4.098-13.152 7.558-24.931 10.542l-275.142 25.559L546.809 709.96c-1.236 2.352-2.847 5.208-4.956 8.794-2.106 3.465-4.588 7.077-7.572 10.541-2.978 3.607-6.686 6.707-11.032 9.301C518.773 741.214 513.563 742.572 507.612 742.572"  horiz-adv-x="1024" />

    
    <glyph glyph-name="yulan" unicode="&#58902;" d="M962.112-159.84l-35.392-37.888c-13.888-15.04-36.48-15.04-50.496 0l-142.72 152.576c-34.368-21.376-74.368-33.792-117.056-33.792-126.144 0-235.2 115.072-238.784 249.344L197.12 170.4 197.12 234.4l186.496 0C388.672 257.12 396.992 278.24 407.36 298.208L197.12 298.208 197.12 362.016l257.088 0C453.76 361.504 453.504 360.8 453.12 360.288 494.4 400.672 548.864 425.888 609.28 425.888c128.512 0 239.616-118.848 239.616-256.192 0-47.36-12.224-91.456-33.6-129.088l141.888-151.808C971.136-126.112 976.128-144.992 962.112-159.84L962.112-159.84zM609.28 349.344c-88.768 0-160.832-76.992-160.832-172.096 0-94.976 79.232-179.648 168-179.648 88.96 0 160.96 77.056 160.96 172.032C777.344 264.736 698.24 349.344 609.28 349.344L609.28 349.344zM197.12 617.44l419.392 0 0-63.872L197.12 553.568 197.12 617.44 197.12 617.44zM616.512 474.912c-35.648-10.944-69.12-26.88-98.688-49.088L197.12 425.824 197.12 489.76l419.392 0L616.512 474.912 616.512 474.912zM676.608 486.56 676.608 681.312 137.216 681.312l0-638.656 253.696 0c12.736-47.552 34.368-90.624 63.296-127.616L137.216-84.96c-33.152 0-59.904 28.48-59.904 63.808L77.312 745.184c0 35.264 26.752 63.808 59.904 63.808l539.392 0c33.024 0 59.904-28.544 59.904-63.808l0-258.624c-10.048 0.96-19.776 3.2-30.08 3.2C696.256 489.76 686.528 487.52 676.608 486.56L676.608 486.56zM676.608 486.56"  horiz-adv-x="1024" />

    
    <glyph glyph-name="collapsed" unicode="&#58916;" d="M959.999 474.888h-358.958v358.957h-179.506v-358.985h-358.942v-179.464h358.942v-358.958h179.506v358.958h358.958z"  horiz-adv-x="1024" />

    
    <glyph glyph-name="mendian" unicode="&#59234;" d="M120.413975 697.213697l782.829242 0 0-99.260701-782.829242 0 0 99.260701ZM120.413975 548.834298 69.931211 299.147586 69.931211 215.236478 954.067766 215.236478 954.067766 298.12428 903.243217 548.834298ZM120.413975 215.236478l81.864496 0 0-300.852022-81.864496 0 0 300.852022ZM821.378721 215.236478l81.864496 0 0-300.852022-81.864496 0 0 300.852022ZM520.526699 215.236478l83.911108 0 0-218.987526-83.911108 0 0 218.987526ZM202.278471-3.751049l619.10025 0 0-81.864496-619.10025 0 0 81.864496Z"  horiz-adv-x="1024" />

    
    <glyph glyph-name="jizhang" unicode="&#58921;" d="M607.23348-92.951627 80.948125-92.951627 80.948125 495.356316 278.367427 495.356316 278.367427 692.965953 607.23348 692.965953 607.23348 610.603107 680.078555 683.402133 685.854095 689.164371 685.854095 771.526193 199.81435 771.526193 199.81435 770.930629 2.380722 573.944186 2.380722-171.52517 685.854095-171.52517 685.854095 180.70194 607.23348 102.140677ZM306.179866 198.388764l-0.066515 0 0-0.066515-0.040932 0 0.040932-0.021489-68.895113-212.002438 212.029044 68.862367 0.026606 0 0.026606 0.033769 0 0.032746 429.523567 429.482635-143.160537 143.160537L306.179866 198.388764zM736.041124 553.909897l23.577998-23.570835L404.605549 175.311163l-23.579021 23.585161L736.041124 553.909897zM878.485347 770.680942 784.280802 676.441605 927.388127 533.314837 1021.619278 627.533708Z"  horiz-adv-x="1024" />

    
    <glyph glyph-name="cdingdan" unicode="&#59145;" d="M844.961 696.925l-126.074 111.959c-5.516 5.856-12.882 9.078-20.523 9.078h-499.061c-16.155 0-29.254-14.174-29.254-31.51v-719.273c0-8.492 3.166-16.868 8.952-22.664l88.362-80.871c15.593-12.24 32.295-5.007 40.553 0l90.217 81.72 93.545-85.117c17.088-11.168 25.616-8.844 40.552 0l93.603 85.117 93.602-85.117c8.318-6.058 12.989-8.844 20.304-8.844 7.259 0 12.989 3.313 20.302 8.844l84.704 76.888c5.678 6.032 8.952 14.173 8.952 22.607l0 614.869c0 8.317-3.168 16.458-8.734 22.313zM807.579 58.449l-57.877-54.793-97.641 79.734c-14.276 11.439-28.858 11.439-42.381 0l-97.694-79.734-97.695 79.734c-7.677 5.752-13.5 9.046-21.133 9.046-7.691 0-13.683-3.382-21.192-9.046l-90.605-79.556-65.309 62.074 0 706.488h472.126v-85.33c0-10.82 8.205-19.684 18.344-19.684h101.059l-0-608.932zM276.801 295.381h135.327v-47.902h-135.327v47.902zM276.801 491.145h93.581v-47.9h-93.581v47.9zM276.8 394.712h110.517v-50.804h-110.517v50.804zM504.453 301.013c-27.030 0-48.966-21.947-48.966-48.965s21.937-48.967 48.966-48.967 48.965 21.949 48.965 48.967-21.936 48.965-48.965 48.965zM651.348 301.013c-27.016 0-48.966-21.947-48.966-48.965s21.949-48.967 48.966-48.967 48.965 21.949 48.965 48.967-21.949 48.965-48.965 48.965zM726.568 557.571h-270.829l-6.691 24.777c-5.094 22.249-19.053 24.778-25.611 24.778h-94.128c-13.682 0-24.778-11.106-24.778-24.778 0-13.671 11.097-24.777 24.778-24.777h75.145l49.556-178.48c4.657-14.711 15.681-19.746 24.779-19.746h198.225c10.259 0 19.358 5.226 24.778 19.358l42.49 129.311c3.775 11.989 7.064 18.583 7.064 24.778-0.001 16.454-14.13 24.778-24.777 24.778z"  horiz-adv-x="1024" />

    
    <glyph glyph-name="360" unicode="&#58924;" d="M358.51635 241.011514c1.473561 0 2.928702 0.072655 4.374634 0.179079l95.375208 0 0-109.277846c0-32.246425 26.372647-58.759265 58.666144-58.759265 32.472576 0 58.845223 26.513864 58.845223 58.759265 0 1.471514-0.072655 2.925632-0.179079 4.369517L575.59848 241.190593l113.869421 0c1.440815-0.106424 2.891863-0.179079 4.359284-0.179079 32.293497 0 58.666144 26.513864 58.666144 58.759265 0 32.425504-26.372647 58.759265-58.666144 58.759265-1.472538 0-2.927679-0.072655-4.373611-0.179079L575.59848 358.350966 575.59848 462.184823c0.106424 1.444908 0.179079 2.898003 0.179079 4.369517 0 32.246425-26.372647 58.759265-58.845223 58.759265-32.293497 0-58.666144-26.513864-58.666144-58.759265l0-108.203374-99.570763 0 0-0.004093c-0.060375 0-0.118704 0.004093-0.179079 0.004093-32.293497 0-58.666144-26.334785-58.666144-58.759265C299.850206 267.345276 326.222853 241.011514 358.51635 241.011514zM795.97668-42.596775c23.379477 19.154245 45.025473 40.993646 64.433498 65.440431 61.32981 76.461439 98.100272 173.339884 98.100272 278.526551 0 245.965971-200.935382 446.608687-447.260533 446.608687S63.98836 547.337201 63.98836 301.37123c0-97.349165 31.498388-187.581236 84.805478-261.102716 13.388938-21.057595 33.145911-43.973514 60.656475-67.99358 79.652108-72.90852 185.67584-117.512391 301.798581-117.512391 106.046245 0 203.6584 37.211507 280.467763 99.19214 0.934279 0.74599 1.866511 1.496074 2.795673 2.25025C795.000446-43.394954 795.490609-42.998935 795.97668-42.596775zM181.215248 554.411317c70.829162 41.180911 151.668305 63.064314 202.058972 73.072249 93.649913 18.631336 206.137871-12.898775 247.40167-32.425504 70.14764-32.962739 91.676979-66.283636 127.917368-100.499925l20.6319-19.526729c48.394197-45.723368 97.775884-39.847543 112.25669-4.379751 23.242354-51.757804 36.196387-109.055788 36.196387-169.280428 0-97.362468-33.830503-187.084932-90.331331-258.07987-68.651566-38.006616-145.150868-58.567907-193.671954-68.177775-93.470835-18.631336-205.958792 12.898775-247.40167 32.425504-69.968561 32.962739-91.676979 66.283636-127.737266 100.320846l-20.6319 19.705807c-48.8905 46.096874-100.862175 40.574091-117.052926 4.90266-23.136953 51.659567-36.030611 108.823498-36.030611 168.902828C94.820576 396.446609 127.08849 484.229908 181.215248 554.411317z"  horiz-adv-x="1024" />

    
    <glyph glyph-name="dayin" unicode="&#58934;" d="M696.04776-71.390565 324.657194-71.390565c0 0-37.134759 0-37.134759 37.141922L287.522436 151.446639l37.134759 0 0-185.695283 371.390565 0L696.04776 151.446639l37.141922 0 0-185.695283C733.189681-71.390565 696.04776-71.390565 696.04776-71.390565L696.04776-71.390565zM918.884964 40.028037 807.466362 40.028037c-37.141922 0-37.141922 37.134759-37.141922 37.134759L770.32444 188.581398 250.380514 188.581398l0-111.418602c0-37.134759-37.141922-37.134759-37.141922-37.134759L101.827153 40.028037c0 0-37.141922 0-37.141922 37.134759L64.685231 485.695283c0 37.141922 37.141922 37.141922 37.141922 37.141922L287.522436 522.837204 287.522436 634.248643c0 0 0 37.141922 37.134759 37.141922l371.390565 0c37.141922 0 37.141922-36.637432 37.141922-37.141922l0-111.411439 185.695283 0c37.134759 0 37.134759-37.141922 37.134759-37.141922l0-408.532487C956.019723 40.028037 918.884964 40.028037 918.884964 40.028037L918.884964 40.028037zM807.466362 77.162796l111.418602 0L918.884964 485.695283 101.827153 485.695283l0-408.532487 111.411439 0L213.238592 225.72332l594.22777 0L807.466362 77.162796 807.466362 77.162796zM324.657194 522.837204l371.390565 0L696.04776 634.248643c-0.027629 0.397043-371.390565 0-371.390565 0L324.657194 522.837204 324.657194 522.837204zM176.092577 448.553361c-20.509103 0-37.130665-16.636912-37.130665-37.152155 0-20.502963 16.621563-37.124526 37.130665-37.124526 20.530592 0 37.146015 16.621563 37.146015 37.124526C213.238592 431.916449 196.60168 448.553361 176.092577 448.553361M371.081527 114.304717c-5.133927 0-9.281387-4.164856-9.281387-9.293667 0-5.112438 4.14746-9.277294 9.281387-9.277294 5.140067 0 9.289574 4.164856 9.289574 9.277294C380.370077 110.163397 376.199081 114.304717 371.081527 114.304717M651.211599 95.733757l-232.198409 0c-4.248767 0-7.695263 4.15974-7.695263 9.283434 0 5.161556 3.445472 9.287527 7.695263 9.287527l232.198409 0c4.278443 0 7.702426-4.125971 7.702426-9.287527C658.913001 99.893496 655.490042 95.733757 651.211599 95.733757L651.211599 95.733757 651.211599 95.733757zM371.081527 40.028037c-5.133927 0-9.281387-4.170996-9.281387-9.289574 0-5.111414 4.14746-9.281387 9.281387-9.281387s9.289574 4.170996 9.289574 9.281387C380.370077 35.857041 376.215454 40.028037 371.081527 40.028037M651.216715 21.457076 419.012166 21.457076c-4.248767 0-7.695263 4.125971-7.695263 9.287527 0 5.123694 3.449565 9.283434 7.695263 9.283434l232.198409 0c4.28356 0 7.696286-4.15974 7.696286-9.283434C658.913001 25.583047 655.495158 21.457076 651.216715 21.457076L651.216715 21.457076 651.216715 21.457076zM651.216715 21.457076"  horiz-adv-x="1024" />

    
    <glyph glyph-name="peixun" unicode="&#58967;" d="M897.09568 285.5616c29.5936 37.973333 47.465813 85.439147 47.465813 138.51648 0 123.951787-101.90848 225.60768-225.6384 225.60768-51.636907 0-98.850133-17.3056-137.110187-46.06976-8.635733-7.263573-17.585493-14.810453-25.678507-23.190187-12.008107 25.135787-28.480853 48.325973-48.039253 68.140373-44.376747 44.120747-105.25696 71.48544-173.397333 71.48544-67.310933 0-128.730453-27.364693-172.567893-71.48544-44.407467-44.407467-72.05888-105.823573-72.05888-173.13792 0-58.617173 20.10112-111.684267 53.613227-153.009493-72.884907-70.36928-141.85472-137.939627-141.85472-256.058027l0-80.984747c0-21.504 17.6128-39.089493 39.65952-39.089493l89.361067 0 0-26.821973c0-21.504 17.8688-39.089493 39.08608-39.089493l0 0 698.38848 0c21.787307 0 39.3728 17.585493 39.3728 39.089493l0 3.6352 0 16.75264 77.346133 0c22.074027 0 39.662933 17.872213 39.662933 39.3728l0 73.43104C1024.7168 161.865813 965.782187 219.107413 897.09568 285.5616L897.09568 285.5616zM629.568853 541.053013 629.568853 541.053013c24.876373 18.72896 55.872853 29.88032 89.357653 29.88032 80.97792 0 146.889387-65.880747 146.889387-146.855253 0-41.065813-16.469333-77.63968-43.004587-104.174933-23.446187-23.190187-54.729387-38.79936-88.784213-42.72128 3.058347 15.64672 5.577387 30.70976 5.577387 46.895787 0 86.012587-59.76064 161.98656-141.85472 183.207253C606.692693 520.11904 617.301333 531.304533 629.568853 541.053013L629.568853 541.053013zM550.847147 434.393173 550.847147 434.393173c60.306773 0 109.714773-49.98144 109.714773-110.31552 0-30.70976-12.26752-58.074453-32.11264-77.892267-20.10112-20.10112-47.752533-32.395947-77.605547-32.395947-60.8768 0-110.861653 48.581973-110.861653 110.288213C439.988907 384.411733 489.970347 434.393173 550.847147 434.393173L550.847147 434.393173zM217.408853 592.72064 217.408853 592.72064c30.16704 30.16704 72.05888 48.868693 117.292373 48.868693 46.06976 0 87.412053-18.701653 117.838507-48.868693 23.186773-23.190187 39.656107-53.613227 45.806933-87.125333-79.865173-22.900053-136.850773-97.163947-136.850773-181.517653 0-4.461227 0.28672-8.635733 0.28672-12.837547-8.379733-1.65888-17.03936-1.9456-27.077973-1.9456-45.236907 0-87.412053 18.418347-117.292373 48.295253-30.139733 30.170453-48.581973 71.77216-48.581973 117.838507C168.830293 521.2352 187.528533 562.5536 217.408853 592.72064L217.408853 592.72064zM209.032533-41.152427 209.032533-41.152427l0 24.019627 0.57344 1.109333 0 0.54272 0 111.7184c0 12.837547-10.89536 23.732907-24.019627 23.732907s-23.446187-10.89536-23.446187-23.732907l0-71.48544L80.30208 24.752213l0 41.608533c0 85.722453 58.105173 141.564587 118.981973 200.471893l3.06176 2.515627c51.667627-33.4848 115.032747-45.779627 175.909547-34.628267l5.604693 0.856747c3.631787-7.550293 8.379733-14.80704 13.38368-21.787307-51.923627-50.55488-99.96288-100.795733-99.96288-187.378347l0-58.903893c0-3.089067 0.57344-5.860693 1.112747-8.659627L209.032533-41.152427 209.032533-41.152427zM725.07392 6.886827 725.07392 6.886827l-46.349653 0L678.724267 48.1984c0 13.124267-10.898773 23.732907-23.732907 23.732907-13.12768 0-23.732907-10.60864-23.732907-23.732907l0-89.35424-161.416533 0L469.84192 48.1984c0 13.124267-10.60864 23.732907-23.732907 23.732907-13.124267 0-23.732907-10.60864-23.732907-23.732907l0-41.314987-46.353067 0 0 19.524267c0 55.845547 37.973333 94.675627 79.035733 134.597973 8.093013-4.46464 15.926613-8.383147 24.306347-11.7248l0.256-0.546133 0.57344 0c21.504-8.66304 45.523627-13.697707 70.656-13.697707 34.597547 0 66.996907 9.7792 94.931627 25.96864 42.43456-41.321813 79.291733-77.63968 79.291733-134.597973L725.07392 6.886827 725.07392 6.886827zM946.251093 18.608213 946.251093 18.608213l-69.82656 0 0 61.416107c0 12.868267-10.60864 23.476907-23.446187 23.476907s-23.732907-10.60864-23.732907-23.476907l0-121.176747-26.821973 0c0.57344 2.798933 1.11616 5.57056 1.11616 8.659627l0 58.903893c0 79.31904-37.116587 125.098667-83.49696 172.02176 43.291307 0 84.066987 12.294827 118.981973 34.061653l3.058347-3.34848 0 0 0 0c55.845547-53.613227 104.168107-99.966293 104.168107-176.482987L946.251093 18.608213 946.251093 18.608213z"  horiz-adv-x="1025" />

    
    <glyph glyph-name="rhuizong" unicode="&#59367;" d="M941.040 599.642l-21.738-25.675-94.576 74.384 21.728 25.674c12.001 14.184 33.828 16.167 48.749 4.436l40.535-31.884c14.93-11.732 17.302-32.753 5.302-46.935zM748.906 731.016c0 22.545-18.279 40.825-40.824 40.825h-530.713c-22.545 0-40.825-18.28-40.825-40.825v-653.198c0-22.545 18.28-40.834 40.825-40.834h204.114v-61.238l-204.114 0c-56.374 0-102.063 45.709-102.063 102.072v653.198c0 56.374 45.689 102.063 102.063 102.063h530.722c54.070 0 97.866-42.181 101.385-95.364l-60.57-73.307v66.608zM442.721 179.88h408.257c22.546 0 40.815-18.279 40.815-40.824v-163.311c0-22.525-18.27-40.824-40.815-40.824h-408.257c-22.536 0-40.815 18.299-40.815 40.824v163.311c0 22.545 18.279 40.824 40.815 40.824zM708.091-24.254v-20.412h102.062v40.824h20.412v-20.412h20.412v20.412h-20.412v20.412h-20.412v-20.412h-20.413v-20.412h-61.237v40.824h20.402v-20.412h20.413v20.412h-20.413v20.414h81.66v81.66h-40.825v20.412h20.413v20.412h-20.413v-20.412h-20.422v-20.412h-40.815v20.412h-20.412v20.412h-20.413v-20.412h20.413v-20.412h-40.835v-81.66h61.247v-20.414h-20.412l-0-40.824zM503.957 118.644v-163.31h163.298v20.412h20.422v40.824h-20.422v-20.412h-20.402v-20.412l-122.475 0v142.898h122.476v20.412h-142.897v-20.412zM442.721-44.666h20.422v40.824h20.413v40.826h-20.413v-40.826h-20.422v-40.824zM442.721 118.644h20.422v-20.414h-20.422v-20.412h20.422v-20.412h20.413v20.412h-20.413v20.412h20.413v20.414h-20.413v20.412h-20.422v-20.412zM687.678 98.23h122.476v-40.824l-122.476-0v40.824zM748.906 200.293v88.457l61.248 68.045v-156.502l-61.248 0zM897.584 548.291l-249.873-295.313-94.587 74.385 249.873 295.312 94.587-74.384zM687.678 649.366v-20.412c0-11.273-9.148-20.413-20.412-20.413h-224.545v61.237h224.545c11.264 0.001 20.412-9.139 20.412-20.412zM524.378 200.293l17.893 114.232 94.577-74.385-112.47-39.847zM442.721 486.067v40.825h192.591l-50.582-61.237h-162.422c11.273 0 20.413 9.14 20.413 20.412zM177.369 526.892v163.3c0 22.545 18.27 40.825 40.824 40.825h163.29c22.556 0 40.835-18.279 40.835-40.825v-163.299c0-22.545-18.279-40.825-40.835-40.825h-163.29c-22.554-0.001-40.824 18.279-40.824 40.824zM197.771 588.129h40.834v-81.65h142.877v102.063h-61.227v20.413h40.825v20.412h40.825v20.413h-40.825v20.413h-20.422v-20.413h20.422v-20.413h-40.825v61.237h-20.413v-61.237h20.413v-20.412h-81.65v-20.413h-40.834v-20.413zM197.771 628.954h20.422v20.412h40.825v20.413h20.403v20.413h-20.403v-20.413h-40.825v-20.413h-20.422v-20.412zM361.081 567.717h-102.063v20.412h102.063l0-20.412zM361.081 526.892h-102.063v20.413h102.063l0-20.413zM197.781 363.593c0 11.282 9.13 20.412 20.413 20.412h299.080l-33.717-40.824 1.276-20.414-266.64 0c-11.282 0-20.413 9.141-20.413 20.414v20.412zM218.184 179.88c-11.272 0-20.403 9.139-20.403 20.412v20.413c0 11.273 9.13 20.414 20.403 20.414h271.751l2.55-40.826h-111.002v-20.412h-163.299z"  horiz-adv-x="1024" />

    
    <glyph glyph-name="huishou" unicode="&#58935;" d="M1012.708799 151.82601c0.061391 0.160561 0.132227 0.321122 0.188895 0.481682 4.509869 10.691459 6.875779 22.010994 6.875779 33.722487 0 11.40926-2.247851 22.464342-6.540491 32.929127-0.051946 0.155838-0.118059 0.306954-0.174728 0.462793-0.17945 0.429736-0.302232 0.87364-0.491127 1.303376-0.212507 0.491127-0.528906 0.906696-0.769747 1.378934-0.236119 0.453348-0.382512 0.930308-0.646966 1.378934l-129.860616 216.322597c-6.630216 11.045637-20.891791 14.74798-32.050766 8.297215l-174.208449-100.581885c-5.430732-3.135658-9.392806-8.306659-11.012581-14.37019-1.615053-6.063531-0.750858-12.519019 2.398967-17.940306l116.161004-199.893451-64.129865 0 0 30.242096c0 9.685593-5.912415 18.388932-14.917986 21.949603-8.996126 3.570116-19.272016 1.270319-25.902232-5.784911l-145.076111-154.431138c-8.538056-9.090574-8.538056-23.248257 0-32.33883l145.076111-154.435861c4.55237-4.840435 10.818963-7.442464 17.21306-7.442464 2.918428 0 5.869913 0.538351 8.689172 1.662276 9.005571 3.565394 14.917986 12.268733 14.917986 21.949603l0 30.242096 108.014905 0c8.235824 0 15.876628 4.287917 20.164545 11.319535l122.607047 201.159048c0 0 0 0.004722 0.004722 0.004722 0.004722 0.009445 0.009445 0.014167 0.014167 0.023612l41.538019 68.365837c0.113337 0.184173 0.165283 0.387235 0.273898 0.571407 0.373068 0.65641 0.765025 1.293931 1.081424 1.997565C1012.359343 150.848478 1012.501015 151.344328 1012.708799 151.82601zM837.196975 115.326766l-118.049954 203.133001 133.600738 77.135289 116.921306-194.769673c1.884228-4.694042 2.880649-9.657259 2.880649-14.799926 0-5.322118-1.062535-10.450618-3.078989-15.281609l-33.679985-55.435971L837.196975 115.326766zM813.202583-85.846449l-118.366353 0c-11.262867 0-20.684007-7.895813-23.040472-18.450323l-89.635418 95.420328 89.630695 95.415606c2.356466-10.559233 11.782328-18.450323 23.045195-18.450323l212.185796 0L813.202583-85.846449zM736.803985 442.38908c10.190887 0 19.527025 6.639661 22.591847 16.797491l61.201992 202.859103c2.795647 9.270024-0.349456 19.309795-7.943036 25.326102-7.588858 6.006862-18.077255 6.790777-26.468917 1.940897l-26.190297-15.121048L705.985759 767.732448c-4.117912 7.130788-11.654824 11.602878-19.885925 11.801217L450.585501 785.134403c-0.004722 0-0.014167 0-0.01889 0-0.004722 0-0.009445 0-0.009445 0L370.58373 786.924184c-0.514739 0.014167-0.996421-0.089725-1.501716-0.108615-0.467515-0.01889-0.920863 0.047224-1.393101 0-0.410847-0.042501-0.807526-0.141671-1.213651-0.188895-0.368345-0.056669-0.741413-0.09917-1.105036-0.170006-11.418705-1.459214-22.317949-5.052942-32.386054-10.861465-9.874488-5.699908-18.318096-13.170707-25.236377-22.119609-0.118059-0.136949-0.226674-0.27862-0.340011-0.415569-0.27862-0.363623-0.595019-0.689467-0.868917-1.05309-0.316399-0.425014-0.514739-0.897251-0.798082-1.341155-0.27862-0.434459-0.623354-0.807526-0.878362-1.265597L182.458439 528.775503c-6.252426-11.267589-2.318687-25.463051 8.840288-31.904372l174.208449-100.577163c3.622062-2.092013 7.697473-3.163992 11.80594-3.163992 2.058956 0 4.122634 0.269175 6.143811 0.812249 6.058808 1.633942 11.215643 5.610183 14.341856 11.05036l115.027633 200.545139 32.064933-55.539863-26.185575-15.121048c-8.38694-4.840435-12.967644-14.313521-11.550932-23.895222s8.533333-17.326397 17.963918-19.541192l206.282826-48.423243C733.205534 442.596864 735.018926 442.38908 736.803985 442.38908zM368.609777 449.033462 235.009039 526.164029l110.206087 198.623132c3.126213 3.990408 6.927726 7.338572 11.380926 9.907545 4.618484 2.668142 9.595868 4.311529 14.799926 4.972662l64.819332-1.454492 49.29216-85.394724L368.609777 449.033462zM593.139863 523.982291c7.966648 7.319683 10.086995 19.423132 4.453201 29.184283l-106.092898 183.761815 180.224756-4.283195 59.185538-102.508615c3.371776-5.836857 9.076407-9.950046 15.678288-11.314813 3.971518-0.821693 8.042206-0.599742 11.820107 0.590297l-37.812064-125.341302L593.139863 523.982291zM475.699096 128.554141c-0.023612 0-0.042501 0-0.066113 0l-231.188637-0.651688 32.064933 55.539863 26.185575-15.121048c3.669286-2.120347 7.744697-3.163992 11.80594-3.163992 0.033057 0 0.070836 0.004722 0.09917 0 13.03848 0 23.61188 10.568677 23.61188 23.61188 0 3.126213-0.604464 6.106032-1.7095 8.835565l-60.597528 200.842649c-3.603173 11.938166-15.871906 19.002841-28.003689 16.164693L41.618299 366.188821c-9.430585-2.214794-16.547205-9.959491-17.963918-19.541192s3.163992-19.054787 11.550932-23.895222l26.190297-15.121048L7.390518 214.090537c-4.117912-7.13551-4.221804-15.895517-0.273898-23.120753l112.907286-206.759786c0 0 0-0.004722 0.004722-0.004722 0.004722-0.009445 0.004722-0.014167 0.009445-0.023612l38.435418-70.150895c0.226674-0.420291 0.543073-0.75558 0.793359-1.15226 0.269175-0.429736 0.453348-0.887807 0.75558-1.303376 0.306954-0.425014 0.661133-0.798082 0.977532-1.213651 0.113337-0.136949 0.212507-0.27862 0.330566-0.410847 7.008006-9.251134 15.626342-16.962774 25.760561-22.813798 9.79893-5.657406 20.410109-9.213355 31.521859-10.75285 0.122782-0.023612 0.255008-0.037779 0.37779-0.061391 0.590297-0.08028 1.161704-0.221952 1.756724-0.288065 0.897251-0.103892 1.78978-0.151116 2.677587-0.151116 0 0 0.004722 0 0.004722 0 0 0 0.004722 0 0.004722 0 0 0 0 0 0 0s0 0 0 0c0.132227 0 0.269175 0 0.401402 0.004722l252.269323 4.297362c12.882642 0.217229 23.210478 10.724516 23.210478 23.607157l0 201.163771c0 6.271315-2.498137 12.292345-6.93717 16.721933C487.944217 126.079616 481.946799 128.554141 475.699096 128.554141zM114.102048 304.467368c3.272607 5.671574 4.042354 12.443461 2.129792 18.705331-1.237262 4.051799-3.532337 7.659694-6.592437 10.47423l127.456927 29.920974 37.816787-125.33658c-4.235971 1.317543-8.797786 1.43088-13.161262 0.273898-6.049364-1.624497-11.206198-5.581848-14.337133-11.003136l-106.092898-183.761815L54.921232 201.958753 114.102048 304.467368zM452.087216-73.001586l-227.122671-3.872348c-5.015163 0.708356-9.813097 2.332854-14.27102 4.901826-4.613761 2.66342-8.523889 6.157978-11.70677 10.337281l-31.148792 56.857406 49.306327 85.380557 234.942926 0.665855L452.087216-73.001586z"  horiz-adv-x="1024" />

    
    <glyph glyph-name="cuxiao" unicode="&#58951;" d="M1021.38 135.691l-193.791-104.586-63.115-210.977-210.993 63.091-193.787-104.598-104.592 193.809-211.008 63.095 63.095 210.985-104.567 193.834 193.786 104.554 63.101 210.991 211.011-63.076 193.787 104.567 104.588-193.793 210.994-63.1-63.097-211.001 104.589-193.795zM325.571 547.932c0-52.071-3.847-104.894-11.466-158.462-33.627-3.089-51.962-23.76-55.003-62.001-1.531-41.342 12.956-58.209 43.538-50.522v-231.949h80.211v277.874c0 13.777-4.595 27.559-13.762 41.335 25.971 53.579 43.556 114.829 52.704 183.724h-96.224zM639.487 113.889v105.643h114.576v32.155h-114.576v78.077h36.669c41.245 3.042 62.621 26.768 64.164 71.193v71.193c-1.546 44.378-24.455 67.346-68.737 68.896h-233.732v-211.282h119.153v-208.979c-1.551 1.501-5.379 3.051-11.466 4.592-13.739 4.595-22.905 7.635-27.5 9.191 9.166 45.927 12.207 97.202 9.166 153.861h-80.187c3.045-47.477 3.045-94.949 0-142.382-32.092-4.596-48.128-21.463-48.128-50.522 0-27.559 12.956-43.634 38.961-48.226 22.911 0 44.286 13.777 64.15 41.338 25.971-19.885 48.881-32.151 68.746-36.747 44.301-7.647 103.111-9.182 176.448-4.592l25.21 73.487c-36.675-4.597-80.994-6.895-132.915-6.895v0zM520.334 361.913v146.981h105.409c24.421 1.501 35.886-9.191 34.375-32.155v-87.268c1.509-18.369-8.426-27.559-29.799-27.559h-109.987zM421.793 72.557c-12.233 3.076-16.042 15.278-11.445 36.741 9.166 16.832 20.613 21.419 34.374 13.782-1.554-35.244-9.171-52.033-22.93-50.522v0zM284.307 290.724c-10.698 1.501-16.037 11.484-16.037 29.853 4.592 39.797 16.037 51.269 34.371 34.448v-34.448c-4.571-18.369-10.697-28.351-18.334-29.853v0zM284.307 290.724z"  horiz-adv-x="1024" />

    
    <glyph glyph-name="pdf" unicode="&#58905;" d="M617.469 74.625v-140.625l168.75 168.75h-140.625c-15.525 0-28.125-12.6-28.125-28.125zM842.469 834h-587.109c-23.287 0-42.188-18.886-42.188-42.188h587.109c15.539 0 28.125-12.586 28.125-28.125v-586.814c23.203 0 41.991 18.731 42.159 41.892h0.028v587.109c0 15.539-12.586 28.125-28.125 28.125zM299.853 281.906c0.492-0.759 4.781-3.572 12.094-3.572 5.077 0 10.434 1.35 15.483 3.881 4.697 2.362 13.767 8.648 29.278 25.284-8.494-2.222-16.566-4.5-24.075-6.792-26.269-8.058-32.541-16.875-32.78-18.802zM479.052 427.284l-0.464-0.816-0.239 0.45c-15.047-24.623-32.597-50.934-49.823-74.756l1.266 0.267-0.717-0.9c32.048 5.33 63.548 8.887 91.645 10.364l-0.717 0.872h0.998c-15.413 20.784-29.939 43.144-41.948 64.519zM488.656 507.342c10.434 40.936-1.28 64.8-6.412 66.783-0.802-0.97-8.972-11.588-10.238-44.662-0.295-7.833 1.294-20.7 8.845-40.795 5.667 11.545 7.355 16.889 7.805 18.675zM626.244 320.311c-5.386 3.867-17.494 9.675-43.481 12.516 6.244-6.342 11.981-11.489 16.875-15.159 22.416-16.72 34.059-18.534 38.025-18.534 1.448 0 2.194 0.239 2.377 0.337 0.548 1.673-1.659 12.122-13.795 20.841zM758.094 749.625h-576.563c-15.525 0-28.125-12.586-28.125-28.125v-759.375c0-15.525 12.6-28.125 28.125-28.125h407.813v168.75c0 15.525 12.6 28.125 28.125 28.125h168.75v590.625c0 15.539-12.6 28.125-28.125 28.125zM666.406 290.47c-3.909-12.178-14.667-19.448-28.744-19.448-14.948 0-33.413 8.114-54.858 24.117-13.57 10.139-28.322 26.142-39.487 39.333-40.064-0.45-90.703-6.356-140.611-16.411-26.128-32.695-47.18-53.198-62.62-60.975-8.958-4.5-18.689-6.891-28.139-6.891-21.066 0-37.477 11.405-39.923 27.731-1.8 12.009 2.616 34.411 52.369 49.655 18.38 5.625 39.923 11.123 62.578 15.933 25.833 33.272 55.125 76.669 76.697 113.597-13.838 29.77-20.489 54.436-19.758 73.392 2.475 64.659 28.012 71.634 38.897 71.634 8.986 0 17.578-4.683 24.188-13.191 11.461-14.752 19.828-45.787 8.916-88.594-2.362-9.295-9.225-24.159-20.433-44.269 15.567-30.389 37.884-64.519 61.172-93.558 40.247-0.773 69.173-7.298 86.020-19.406 19.463-13.964 29.222-35.62 23.738-52.65z"  horiz-adv-x="1024" />

    
    <glyph glyph-name="access" unicode="&#58961;" d="M937 544.6c-27.6 159.2-177.8 265.4-335.4 237.4-157.4-28-290.4-150.6-262.6-309.6 6-34.4 22.6-88 42.2-126.6l-286-412.6c-10.6-15.2-16.6-42.6-13.4-61l12.4-70.6c-11.8 68 3.2-24.6 12.4-24.2l94.2-1.4c18.2 3.2 41 18.6 51 34.2l113.2 177 1 1.2 98.8-7.8 132.2 207.2c43.4-7.4 105.6-4.8 142.6 1.6 156.8 28 225.4 196.2 197.4 355.2v0 0zM797.6 463.2c-43.4-62.4-87.6-18.4-149.4 25.4s-118 70.6-74.6 133.2c43.4 62.4 128.6 77.8 190.4 34 61.8-44 77-130.2 33.6-192.6v0 0zM143-116.4l1.6 15.4 274 398 16.4-15.4-278-392z"  horiz-adv-x="1024" />

    
    <glyph glyph-name="shenhe" unicode="&#59121;" d="M507.7937 747.02108c-248.301156 0-445.456445-200.039989-445.456445-446.681342 0-246.638283 199.953008-446.679295 446.593338-446.679295 246.639307 0 446.680319 199.951985 446.680319 446.679295C955.611935 546.981091 756.008898 747.02108 507.7937 747.02108L507.7937 747.02108zM793.167193 420.819716c0 0-272.170796-287.996227-306.9673-322.791707-24.656563-24.657586-55.256488-16.175401-68.196195-3.323699L223.646128 272.71354c-17.923208 18.796088-17.923208 49.310056 0 68.107167 17.923208 18.798135 46.862307 18.798135 64.785515 0l160.958902-144.609539c0 0.26299 278.989085 292.715715 278.989085 292.715715 17.923208 18.798135 46.863331 18.798135 64.786539 0S811.089377 439.616828 793.167193 420.819716L793.167193 420.819716z"  horiz-adv-x="1024" />

    
    <glyph glyph-name="jifen" unicode="&#58971;" d="M500.406537 812c-7.536078 0-15.022516-0.158063-22.446251-0.428468-15.507155-0.556486-27.539537-13.164949-26.953006-28.096024 0.617883-14.966345 13.633913-26.621205 29.086203-26.059493l0 0.040495c6.765357 0.235135 13.516345 0.403648 20.307829 0.403648C784.083889 757.314123 1013.560005 535.533455 1014.07077 261.269341c0-171.436952-89.773249-322.432831-226.501657-411.695314-12.838373-8.389095-16.165533-25.243052-7.515177-37.658182 5.39243-7.741168 14.23612-11.893914 23.252242-11.893914 5.388511 0 10.822743 1.494414 15.629948 4.59689 151.485744 98.912164 251.173853 266.614387 251.198673 456.65052C1070.124349 565.429568 815.094281 812 500.406537 812zM525.909543 284.076133c0.982342 0 2.101846 0.088829 3.327161 0.26518l0.740675 0.052252 125.951386 0c4.464953 0 5.826124 1.358558 5.826124 5.816979l0 132.590032c0 1.549279 0 4.400944-6.374772 5.82743l-127.618232 0c-2.591711 0-5.816979 0-5.816979-8.036393l0-130.818681-0.073153-0.431081c-0.421937-2.498963-0.139775-3.899323 0.26518-4.378737C522.500085 284.534646 523.680986 284.076133 525.909543 284.076133zM483.2874 722.282922C216.372562 722.282922 0 513.131618 0 255.131011S216.367337-212 483.27695-212c266.914838 0 483.29785 209.140854 483.29785 467.131011C966.5748 513.126393 750.202238 722.282922 483.2874 722.282922zM393.21762 178.794423c-2.319999 3.081575-5.089367 6.626889-8.281978 10.60459l0-166.807404-0.022207-0.239054c-1.203108-13.07612-8.379951-29.109717-35.732687-31.250752l-0.393198-0.030045-0.391892 0.028739c-29.577374 2.143648-35.786246 18.437199-35.786246 31.730166L312.609412 142.048042c-6.561574-16.818686-13.729273-31.104446-21.360711-42.555522l-0.124099-0.178964c-9.11932-12.523553-20.12364-18.872199-32.708589-18.872199-5.621034 0-11.586932 1.299774-17.731794 3.864052l-0.487252 0.233829c-13.183237 7.179456-25.782556 21.520081-10.933779 49.054393l0.161982 0.278243c32.40422 52.125518 58.352677 113.346842 77.17393 182.05983l-50.641554 0c-14.477786 0-31.734085 6.27288-31.734085 36.158543l0.014369 0.393198c1.638107 21.702963 13.99576 34.068453 35.739219 35.758813l0.404955 0.015676 52.226103 0L312.608106 433.995617c-5.507385-1.06072-12.419049-2.105765-20.654-3.122071l-0.64009-0.039189-21.777423 0c-3.459098-0.424549-6.762745-0.638784-9.826032-0.638784-25.553953 0-33.364355 14.744273-35.416561 27.113682l-0.070541 0.424549 0 0.431081c0 23.039314 12.911526 37.800569 37.338137 42.684846l0.508153 0.101892 17.908145 0c52.401148 5.809142 92.264374 11.713643 118.48193 17.551524l0.39973 0.073153c2.969233 0.423243 5.850943 0.636171 8.56414 0.636171 18.391478 0 31.167148-9.87959 36.946245-28.571519l0.173739-0.563018 0.044414-0.587838c1.638107-21.736927-9.684951-35.856786-32.751697-40.839036-5.886214-1.478738-11.765896-2.952251-17.610308-4.400944l-0.619189-0.154144-8.669951 0 0-55.839345 35.029895-0.022207c9.887428-0.909189 21.461297-5.240899 27.444177-19.113865L447.411019 449.084754c-1.60545 17.96301 1.634188 31.514626 9.631392 40.276018 7.707204 8.445267 19.622018 12.348508 35.49102 11.590851l187.599872 0c20.203324 0.80991 35.194489-3.768692 44.611647-13.614318 8.377339-8.75878 12.259679-21.586702 11.542517-38.129758l0-189.806223c0.751126-16.513011-2.760224-28.964717-10.437383-37.008948-6.782339-7.106303-16.681524-10.709094-29.420618-10.709094-2.415359 0-4.974412 0.130631-7.609231 0.386666L488.141632 212.069949c-1.235765-0.070541-2.458467-0.104504-3.635449-0.104504 0 0-0.001306 0-0.002613 0-11.564725 0-20.62918 3.368962-26.945168 10.011527-7.56351 7.954096-10.976887 20.548189-10.147383 37.434803l0 74.686724c-6.054727-14.591435-17.846749-18.166794-27.922285-18.166794l-34.551787 0 0-8.514501c4.053467-5.41725 8.103014-10.822743 12.161706-16.215173 29.875212-37.365569 46.516241-58.350064 50.871464-64.144837l0.424549-0.666216c11.471977-21.33981 9.682338-39.767865-5.320583-54.777318l-0.431081-0.38536c-7.129817-5.705943-14.360219-8.599411-21.490036-8.599411-9.771167 0-19.125622 5.383286-27.806024 16.002245L393.21762 178.794423zM567.727003 146.314437c-26.578096-48.721285-61.035829-95.919417-102.433964-140.308992l-0.482027-0.454594c-10.236212-8.507969-20.757198-12.821391-31.267734-12.821391 0 0 0 0-0.001306 0-9.490311 0-18.993685 3.517881-28.243636 10.455671l-0.408874 0.306982-0.342252 0.380135c-10.590221 11.780265-18.386253 30.640707 4.617791 53.600337 30.401653 30.401653 60.591685 72.387626 89.724915 124.786161l0.116261 0.198558c9.040942 14.694633 20.421478 22.145801 33.826787 22.145801 6.048196 0 12.517022-1.568873 19.222289-4.662205l0.556486-0.299144C574.11745 186.363158 579.343979 167.92204 567.727003 146.314437zM738.121522 9.48283l-0.412793-0.241667-0.449369-0.163288c-4.871214-1.758288-9.562158-2.649188-13.939588-2.649188-0.001306 0-0.001306 0-0.002613 0-12.41513 0.001306-22.481522 6.868556-29.919626 20.411027-32.077644 52.472995-60.206325 94.667976-83.606179 125.411882-6.634727 9.095807-9.223825 17.841524-7.756843 26.080394 1.541441 8.659501 7.547835 16.535218 17.85328 23.412918l0.207703 0.131937c16.501254 9.922698 34.508679 7.55306 52.398536-7.065808l0.455901-0.372297 0.36054-0.465045c30.896743-39.705163 59.332406-85.346179 84.519287-135.658544l0.287387-0.692342C764.745339 37.648088 757.832369 21.001834 738.121522 9.48283z"  horiz-adv-x="1071" />

    
    <glyph glyph-name="tongbu" unicode="&#59148;" d="M864.149 495.848c-50.405 156.662-195.578 256.378-351.766 256.266v79.826l-175.4-101.499 175.4-101.5v77.015c136.673 0.106 263.711-87.161 307.818-224.248 38.37-119.258 3.771-244.487-79.017-327.46l29.769-35.477c96.69 94.788 137.489 239.409 93.196 377.077zM511.104 59.51c-136.049 0.589-262.248 87.701-306.178 224.239-38.294 119.021-3.905 243.989 78.529 326.963l-29.778 35.488c-96.333-94.796-136.916-239.158-92.699-376.59 50.23-156.115 194.565-255.682 350.127-256.267v-76.804l175.4 101.5-175.4 101.499 0-80.028z"  horiz-adv-x="1024" />

    
    <glyph glyph-name="shanchu" unicode="&#58901;" d="M877.753171 584.288788c-7.219425 10.243295-16.949021 18.781762-29.185716 25.613354-12.240789 6.827499-27.774577 10.243295-46.603411 10.243295l-43.305295 0c-15.064091 0-29.185716 0.340761-42.3659 1.026376l0 63.513546c0 17.759479-4.234441 32.957623-12.706393 45.589314-8.476045 12.635785-23.693632 18.953677-45.664016 18.953677L363.253234 749.228351c-16.325827 0-30.129204-6.317892-41.429575-18.953677-11.296277-12.631692-16.944927-27.829835-16.944927-45.589314l0-62.495356-83.787288 0c-16.321734 0-30.438243-3.070942-42.3659-9.216919-11.923564-6.145977-21.653159-13.826913-29.184693-23.050995-7.532557-9.216919-13.180184-19.291368-16.949021-30.219255-3.76372-10.927887-5.644557-20.834514-5.644557-29.709649 0-17.755386 0.313132-28.343535 0.940418-31.758308 0-2.730181 0.317225-4.438079 0.940418-5.123694l58.370409 0 0-527.597233c0-17.759479 2.980891-33.639145 8.942673-47.642067 5.961782-13.998829 14.124695-25.954115 24.480554-35.855626 10.356882-9.902534 22.753213-17.58347 37.183877-23.050995 14.437827-5.460362 29.811979-8.190543 46.12962-8.190543l419.885046 0c17.575284 0 33.110095 2.899026 46.603411 8.703219 13.494339 5.809309 24.951275 13.494339 34.363645 23.050995 9.416464 9.561773 16.634866 20.661575 21.653159 33.298384 5.021364 12.631692 7.532557 25.78527 7.532557 39.443337L833.973062 493.110159l62.134129 0 0 6.145977c0 2.048659 0.156566 4.438079 0.469698 7.172353 0.317225 2.734274 0.473791 6.490831 0.473791 11.268648 0 10.246365-1.414209 21.340027-4.238534 33.29429C889.988844 562.944668 884.971573 574.045493 877.753171 584.288788zM363.253234 684.683313l294.668183 0 0-64.539922L363.253234 620.143391 363.253234 684.683313zM364.189559 13.659483c0-28.002774-10.042727-42.001603-30.125111-42.001603-10.670014 0-18.044982 3.411703-22.122857 10.243295-4.080945 6.827499-6.118348 17.414625-6.118348 31.758308L305.823244 489.008748l58.366316 0L364.189559 13.659483zM539.300786 13.659483c0-14.343683-1.883907-24.758893-5.64865-31.245631-3.767813-6.486738-10.987239-9.733689-21.653159-9.733689-20.712741 0-31.069623 13.658068-31.069623 40.97932L480.929354 489.008748l58.370409 0L539.299763 13.659483zM717.232245 15.712235c0-14.343683-1.879813-24.758893-5.64865-31.245631-3.76372-6.493901-11.292184-9.737782-22.592554-9.737782-20.712741 0-31.069623 13.662161-31.069623 40.983413L657.921417 489.008748l59.310827 0L717.232245 15.712235z"  horiz-adv-x="1024" />

    
    <glyph glyph-name="yxiaoshou" unicode="&#59149;" d="M435.405 500.096c-9.549-4.582-17.51-11.264-23.782-20.070-6.298-8.806-10.445-19.482-12.442-32.026-1.997-12.57 0.102-23.987 6.298-34.253 5.274-9.165 13.568-16.461 24.883-21.862 11.29-5.427 24.806-9.6 40.474-12.518l21.325-4.122v137.216c-13.133-0.717-23.475-1.818-31.027-3.302-7.578-1.459-16.154-4.48-25.728-9.062zM962.79 431.36l-438.528 371.405c-7.117 6.042-17.536 6.067-24.704 0.102l-445.594-371.405c-7.526-6.272-9.088-17.178-3.712-25.344l85.965-129.818c2.893-4.403 7.501-7.398 12.698-8.32 5.171-0.87 10.522 0.358 14.746 3.507l37.581 27.93 72.55-328.909c1.946-8.806 9.754-15.053 18.739-15.053h440.294c9.088 0 16.947 6.4 18.79 15.283l68.301 328.55 42.010-23.834c8.909-5.069 20.224-2.202 25.702 6.426l78.95 124.544c5.171 8.090 3.558 18.739-3.789 24.934zM674.944 247.091c-1.382-15.949-6.349-30.899-14.899-44.826-8.576-13.926-21.146-26.266-37.76-36.966-16.563-10.752-32.077-17.024-46.464-18.842l-39.936-6.886v-12.928c0-4.787-1.28-9.114-3.763-13.056-2.534-3.942-7.885-6.349-16-7.142-8.115-0.845-14.157 0.998-18.099 5.504-3.917 4.48-5.862 8.832-5.862 13.056v15.949c-15.334 3.302-28.902 6.758-40.755 10.291-11.853 3.61-24.704 9.267-38.554 17.050-13.85 7.808-25.293 16.333-34.33 25.6-9.037 9.242-16.947 19.61-23.782 31.053-6.861 11.469-10.24 22.528-10.24 33.152s3.558 18.15 10.65 22.554c7.117 4.403 13.184 4.122 18.202-0.819 4.992-4.941 9.318-12.518 12.979-22.682 3.661-10.189 10.035-19.635 19.149-28.339 9.088-8.704 19.328-16.41 30.618-23.091 11.29-6.682 20.122-10.752 26.522-12.237l29.517-8.525v148.787c-16.23 2.586-29.85 5.171-40.883 7.834s-23.424 6.861-37.197 12.518c-13.747 5.683-25.421 12.826-34.995 21.453s-16.41 19.43-20.506 32.461-5.146 27.392-3.149 43.187c2.381 20.89 11.085 41.702 26.138 62.413 15.027 20.736 43.315 33.101 84.89 37.12l25.702 3.021c-0.538 4.787-0.512 9.114 0.154 13.082 0.64 3.917 3.226 7.731 7.706 11.392 4.506 3.686 11.725 4.506 21.734 2.483s14.72-8.064 14.182-18.15v-7.142c14.566-2.739 27.238-5.683 37.99-8.806 10.778-3.123 22.323-8.806 34.714-17.050s22.093-17.382 29.133-27.366c7.014-9.984 13.85-21.35 20.531-34.099 6.656-12.723 9.37-22.912 8.192-30.49-1.203-7.629-4.864-13.312-11.085-17.050-6.195-3.763-12.544-3.738-18.995 0.128-6.477 3.84-11.546 9.626-15.181 17.331l-12.595 28.595c-5.837 10.624-13.926 19.942-24.32 27.904-10.394 8.013-19.866 12.518-28.442 13.619l-19.942 3.021v-140.262c24.806-3.123 43.93-6.323 57.421-9.626 13.466-3.302 25.421-8.064 35.814-14.31 10.368-6.221 19.046-13.926 25.984-23.091s12.288-20.25 16.128-33.28 5.043-27.546 3.686-43.494zM609.459 312.96c-8.576 7.245-23.142 11.802-43.75 13.619l-29.798 2.739v-147.123c10.573 0.717 20.608 1.971 30.080 3.712 9.472 1.741 19.456 5.837 29.952 12.262 10.47 6.426 18.509 14.413 24.038 23.936 5.581 9.523 8.806 19.917 9.728 31.232 0.896 11.238-0.102 22.221-3.021 32.845-2.918 10.598-8.653 19.533-17.229 26.778z"  horiz-adv-x="1024" />

    
    <glyph glyph-name="zip" unicode="&#58906;" d="M895.469672 584.309254 667.839301 584.309254 667.839301 811.939625 895.469672 584.309254zM639.627772 556.096702 639.627772 811.939625l-511.725754 0.060375 0-447.784466 767.567653 0L895.469672 556.096702 639.627772 556.096702zM752.971214 168.869451c-5.446036 3.290953-11.751648 5.513574-18.909675 6.661723-7.16519 1.140986-14.612813 1.719154-22.349007 1.719154l-52.43421 0 0-91.974761 52.43421 0c7.736195 0 15.183817 0.571005 22.349007 1.720178 7.158027 1.140986 13.46364 3.363607 18.909675 6.661723 5.438872 3.290953 9.81146 7.951089 13.109576 13.967106 3.290953 6.018064 4.942569 13.894452 4.942569 23.639396 0 9.737782-1.651616 17.621333-4.942569 23.638373C762.782673 160.918361 758.411109 165.572358 752.971214 168.869451zM0.618077 300.254803l0-447.724091 1022.763846 0L1023.381923 300.254803 0.618077 300.254803zM435.618379-77.184525l-258.732739 0 0 53.293787 164.609035 196.84318L189.779298 172.952442 189.779298 229.684538l241.541195 0 0-53.293787L266.712481-20.451406l168.906921 0L435.619402-77.184525zM538.507724-77.184525 471.031936-77.184525 471.031936 229.684538l67.475787 0L538.507724-77.184525zM830.54908 94.945811c-3.868097-11.892865-10.033517-22.422685-18.481933-31.589462-8.454556-9.172917-19.414165-16.546861-32.878828-22.134113-13.470803-5.587252-29.80277-8.380878-48.995901-8.380878l-70.91512 0L659.277298-77.184525l-67.476811 0L591.800487 229.684538l138.39193 0c19.193131 0 35.525098-2.792603 48.995901-8.379854 13.464663-5.587252 24.424272-12.968359 32.878828-22.135136 8.448416-9.172917 14.612813-19.629059 18.481933-31.373545 3.867074-11.751648 5.802146-23.927969 5.802146-36.532031C836.351226 118.940294 834.416154 106.831512 830.54908 94.945811z"  horiz-adv-x="1024" />

    
    <glyph glyph-name="zidong" unicode="&#59003;" d="M912.639 439.231c-21.904 51.792-53.26 98.3-93.191 138.231-39.933 39.932-86.441 71.288-138.232 93.194-53.634 22.686-110.592 34.188-169.293 34.188s-115.658-11.502-169.293-34.188c-51.792-21.906-98.3-53.26-138.231-93.194-39.932-39.932-71.288-86.441-93.194-138.231-22.685-53.634-34.188-110.592-34.188-169.292s11.502-115.658 34.188-169.293c21.906-51.793 53.261-98.301 93.194-138.232s86.441-71.288 138.231-93.192c53.634-22.686 110.592-34.188 169.293-34.188s115.658 11.502 169.293 34.188c51.792 21.905 98.3 53.261 138.232 93.192 39.932 39.932 71.288 86.441 93.191 138.232 22.686 53.634 34.188 110.592 34.188 169.293C946.827 328.639 935.325 385.597 912.639 439.231zM753.604 38.097c-3.556-1.696-7.31-2.501-11.002-2.501-9.553 0-18.717 5.374-23.104 14.569l-69.64 145.91L374.924 196.075 299.99 49.538c-4.525-8.85-13.497-13.941-22.798-13.941-3.92 0-7.897 0.904-11.627 2.811-12.579 6.433-17.562 21.845-11.129 34.425L495.14 543.553c0.017 0.032 0.035 0.062 0.052 0.094 0.146 0.282 0.299 0.56 0.454 0.837 0.052 0.092 0.102 0.185 0.153 0.276 0.176 0.302 0.36 0.601 0.548 0.897 0.04 0.062 0.078 0.128 0.118 0.189 0.202 0.314 0.415 0.622 0.632 0.927 0.03 0.042 0.058 0.085 0.087 0.126 0.23 0.318 0.469 0.631 0.715 0.94 0.018 0.024 0.035 0.048 0.054 0.072 0.604 0.755 1.26 1.475 1.955 2.164 0.809 0.802 1.663 1.548 2.56 2.227 0.005 0.004 0.01 0.007 0.014 0.01 0.333 0.253 0.674 0.497 1.019 0.731 0.031 0.022 0.064 0.043 0.098 0.064 0.319 0.216 0.644 0.424 0.972 0.625 0.058 0.035 0.119 0.068 0.179 0.104 0.306 0.183 0.614 0.362 0.927 0.532 0.085 0.047 0.173 0.09 0.259 0.135 0.289 0.153 0.579 0.303 0.873 0.444 0.03 0.014 0.059 0.031 0.089 0.045 0.099 0.047 0.196 0.086 0.293 0.131 0.25 0.116 0.5 0.23 0.754 0.337 0.179 0.076 0.358 0.146 0.538 0.218 0.198 0.079 0.396 0.156 0.596 0.23 0.229 0.085 0.46 0.164 0.69 0.242 0.149 0.05 0.298 0.1 0.447 0.147 0.273 0.086 0.545 0.166 0.818 0.243 0.112 0.032 0.224 0.063 0.337 0.093 0.301 0.08 0.602 0.153 0.903 0.222 0.093 0.021 0.184 0.042 0.275 0.061 0.317 0.067 0.632 0.13 0.948 0.185 0.088 0.015 0.176 0.031 0.265 0.045 0.314 0.052 0.627 0.098 0.941 0.138 0.103 0.013 0.206 0.025 0.309 0.037 0.296 0.034 0.59 0.063 0.886 0.087 0.135 0.011 0.269 0.02 0.402 0.028 0.261 0.016 0.521 0.031 0.782 0.039 0.179 0.006 0.356 0.009 0.535 0.011 0.216 0.002 0.431 0.003 0.646 0 0.225-0.002 0.45-0.009 0.675-0.018 0.169-0.008 0.338-0.015 0.507-0.025 0.27-0.016 0.538-0.037 0.808-0.062 0.125-0.012 0.25-0.024 0.375-0.037 0.303-0.032 0.605-0.071 0.908-0.114 0.095-0.013 0.189-0.028 0.283-0.042 0.32-0.05 0.642-0.106 0.96-0.168 0.079-0.016 0.16-0.032 0.24-0.048 0.32-0.066 0.642-0.138 0.96-0.216 0.086-0.021 0.173-0.042 0.259-0.065 0.304-0.078 0.606-0.161 0.908-0.25 0.109-0.032 0.219-0.066 0.327-0.1 0.273-0.084 0.544-0.172 0.814-0.266 0.148-0.052 0.298-0.107 0.445-0.161 0.227-0.083 0.452-0.168 0.678-0.258 0.203-0.081 0.401-0.167 0.603-0.253 0.172-0.074 0.344-0.146 0.516-0.224 0.26-0.118 0.518-0.243 0.774-0.371 0.087-0.043 0.176-0.081 0.263-0.126 0.028-0.014 0.054-0.03 0.081-0.044 0.309-0.157 0.611-0.324 0.912-0.495 0.068-0.038 0.136-0.074 0.202-0.112 0.332-0.193 0.661-0.394 0.985-0.602 0.034-0.021 0.069-0.041 0.104-0.064 0.356-0.23 0.706-0.468 1.052-0.717 0.001 0 0.002-0.001 0.002-0.001 1.508-1.087 2.9-2.35 4.157-3.768 0.156-0.175 0.315-0.348 0.466-0.527 0.042-0.052 0.082-0.105 0.124-0.156 0.227-0.275 0.449-0.553 0.665-0.836 0.029-0.04 0.058-0.083 0.088-0.123 0.224-0.3 0.442-0.603 0.652-0.911 0.033-0.048 0.063-0.098 0.096-0.146 0.206-0.306 0.405-0.614 0.597-0.927 0.039-0.063 0.074-0.128 0.112-0.191 0.181-0.303 0.357-0.608 0.526-0.918 0.046-0.084 0.088-0.17 0.133-0.255 0.154-0.291 0.306-0.583 0.447-0.879 0.015-0.03 0.03-0.057 0.044-0.087l0 0.003 224.662-470.722C771.757 59.452 766.354 44.182 753.604 38.097zM401.089 247.239 625.439 247.239 517.132 474.167Z"  horiz-adv-x="1024" />

    
    <glyph glyph-name="quxiao" unicode="&#58895;" d="M591.314091 302.454425l389.244419-393.561176c33.8846-33.881607 55.453423-67.258412 21.555853-101.155982-33.881607-33.898567-67.277367-12.329745-101.155982 21.55286L520.323534 227.164071l-400.363037-400.360044c-34.163937-34.149971-67.982694-55.720788-102.131667-21.570818-34.165933 34.164935-12.59711 67.968727 21.55286 102.132664l391.750473 396.064237L41.884751 688.36276C7.98818 722.244367-13.565678 755.638132 20.330893 789.519739 54.213498 823.417309 87.607263 801.863451 121.487873 767.966879l397.873943-380.63385L905.224259 773.193478c34.148973 34.164935 67.967729 55.718793 102.133662 21.56982 34.147975-34.148973 8.28135-67.984689-25.884582-102.133662L591.314091 302.454425z"  horiz-adv-x="1024" />

    
    <glyph glyph-name="youjiantou" unicode="&#58880;" d="M530.850448 238.836687c32.005172 31.883636 32.111192 87.434343-0.069818 119.489939C399.437114 489.154263 268.507336 620.396929 137.436629 751.493495c-12.621576 12.625455-27.585939 20.686869-45.26804 23.540364-3.529697 0.570182-7.085253 0.999434-10.630465 1.499798-1.025293 0-2.055758 0-3.081051 0-4.035232-0.575354-8.111838-0.943838-12.091475-1.757091-33.298101-6.818909-54.838303-26.616242-63.959919-59.278222-3.201293-11.479919-2.806949-24.85398-1.135192-35.701657 1.751919-11.344162 7.11499-21.818182 14.479515-30.904889 3.444364-4.252444 7.050343-8.418263 10.918788-12.291879 111.045818-111.127273 222.142061-222.222222 333.247354-333.293899 1.444202-1.444202 3.227152-2.554828 5.187232-4.080485-2.121697-2.222545-3.475394-3.696485-4.879515-5.100606C252.653437 186.549333 145.164468 78.887111 37.416912-28.506182c-15.829333-15.773737-33.541172-31.162182-36.146424-54.273293-1.233455-10.908444-1.859232-22.111677 0-32.929616 0.919273-5.363071 3.262061-10.423596 5.494949-15.358707 23.655434-52.318384 89.514667-64.241778 130.66602-23.186101C268.668953-23.315071 399.501761 108.012929 530.850448 238.836687L530.850448 238.836687zM78.451902 776.533657l-12.091475-1.757091C70.345235 775.589818 74.421841 775.958303 78.451902 776.533657L78.451902 776.533657zM551.467498 775.558788c-38.000485-2.858667-70.434909-37.034667-71.651556-75.106263-0.79903-24.979394 8.131232-45.650747 25.691798-63.197091 111.383273-111.252687 222.661818-222.615273 334.015354-333.893818 1.534707-1.534707 3.686141-2.448808 6.595232-4.327434-3.35903-2.667313-5.116121-3.803798-6.565495-5.253172-68.050747-68.000323-136.075636-136.035556-204.100525-204.065616C591.916791 46.185051 548.391619 2.639192 504.845761-40.880808c-19.449535-19.439192-28.328081-42.706747-24.045899-70.054788 4.829091-30.919111 22.440081-52.516202 51.712-63.010909 29.450343-10.550303 56.692364-4.803232 80.49002 15.848727 1.944566 1.682101 3.798626 3.470222 5.616485 5.288081 130.121697 130.111354 259.955071 260.509737 390.546101 390.141414 33.272242 33.035636 33.454545 88.934141 1.206303 121.050505C879.016912 489.195636 748.093599 620.442182 617.028064 751.543919c-12.626747 12.626747-27.611798 20.655838-45.288727 23.505455-3.534869 0.570182-7.090424 0.994263-10.635636 1.484283-1.030465 0-2.055758 0-3.086222-0.005172C555.835013 776.200081 553.659013 775.725576 551.467498 775.558788L551.467498 775.558788zM551.467498 775.558788"  horiz-adv-x="1035" />

    
    <glyph glyph-name="fanshen" unicode="&#58925;" d="M150.301 745.675c-199.925-199.925-200.080-523.966-0.347-723.699 199.779-199.779 523.775-199.58 723.701 0.346 199.971 199.97 200.126 523.923 0.348 723.702-199.734 199.733-523.731 199.622-723.702-0.349zM756.685 563.102l-179.811-179.811 179.811-179.811-60.057-60.057-179.811 179.81-179.811-179.811-60.058 60.057 179.811 179.811-179.811 179.812 60.058 60.058 179.811-179.811 179.811 179.811 60.057-60.058z"  horiz-adv-x="1024" />

    
    <glyph glyph-name="shujujiekou" unicode="&#59261;" d="M87.839 197.831h-54.415c-9.573 0-17.299-7.726-17.299-17.299v-10.917c0-9.573 7.726-17.299 17.299-17.299s17.299-7.726 17.299-17.299v-134.025c0-9.573 7.726-17.299 17.299-17.299h19.65c9.573 0 17.299 7.726 17.299 17.299v179.371c0.335 9.573-7.557 17.465-17.131 17.465v0zM249.911 186.575c-9.573 4.031-20.322 6.383-30.567 6.383-10.413 0-20.491-2.182-30.4-5.878-30.4-12.259-45.346-37.957-45.346-70.202v-55.927c0-31.911 15.116-57.439 45.011-70.036 9.742-4.031 19.986-6.213 30.567-6.213 11.42 0 22.842 2.352 33.086 7.391 28.215 13.101 40.98 38.796 40.98 68.861v55.927c0 31.406-14.109 56.935-43.33 69.699v0zM218.337 29.879c-17.634 0-23.682 14.443-23.682 29.895v58.278c0 15.116 5.878 29.895 23.514 29.895 18.474 0 23.682-14.109 23.682-29.895v-58.448c0-15.619-5.038-29.727-23.514-29.727v0zM418.703 149.628c-7.726 3.36-16.796 5.374-25.191 5.374s-17.131-1.678-25.025-4.87c-25.025-10.079-37.285-31.238-37.285-57.942v-46.019c0-26.368 12.429-47.363 37.285-57.606 8.061-3.36 16.46-5.038 25.191-5.038 9.405 0 18.811 2.016 27.209 6.046 23.178 10.749 33.759 31.911 33.759 56.767v46.019c-0.169 25.697-11.757 46.69-35.941 57.271v0zM392.838 20.306c-14.443 0-19.483 11.757-19.483 24.522v48.202c0 12.429 4.87 24.522 19.483 24.522 15.284 0 19.483-11.757 19.483-24.522v-48.202c0-12.764-4.367-24.522-19.483-24.522v0zM400.397 235.954h19.483c9.573 0 17.299 7.726 17.299 17.299v179.709c0 9.573-7.726 17.299-17.299 17.299h-54.249c-9.573 0-17.299-7.726-17.299-17.299v-10.917c0-9.573 7.726-17.299 17.299-17.299v0c9.573 0 17.299-7.726 17.299-17.299v-134.025c0-9.742 7.895-17.465 17.465-17.465v0zM87.839 450.427h-54.415c-9.573 0-17.299-7.726-17.299-17.299v-10.917c0-9.573 7.726-17.299 17.299-17.299s17.299-7.726 17.299-17.299v-134.025c0-9.573 7.726-17.299 17.299-17.299h19.65c9.573 0 17.299 7.726 17.299 17.299v179.539c0.335 9.405-7.557 17.299-17.131 17.299v0zM249.911 439.175c-9.573 4.031-20.322 6.383-30.567 6.383-10.413 0-20.491-2.182-30.4-5.878-30.4-12.259-45.346-37.957-45.346-70.202v-55.927c0-31.911 15.116-57.439 45.011-70.036 9.742-4.031 19.986-6.213 30.567-6.213 11.42 0 22.842 2.352 33.086 7.391 28.215 13.101 40.98 38.796 40.98 68.861v55.927c0 31.573-14.109 56.935-43.33 69.699v0zM218.337 282.476c-17.634 0-23.682 14.443-23.682 29.895v58.448c0 15.116 5.878 29.895 23.514 29.895 18.474 0 23.682-14.109 23.682-29.895v-58.448c0-15.787-5.038-29.895-23.514-29.895v0zM956.314 409.953c-46.69 46.69-108.663 72.555-174.334 72.555h-64.494c-7.391 87.671-45.179 168.958-107.993 231.773-70.54 70.54-164.256 109.337-264.020 109.337-76.586 0-150.317-23.178-212.961-66.677-61.302-42.491-107.993-101.612-135.033-170.975-6.383-16.46 1.678-35.269 18.308-41.82 16.46-6.383 35.269 1.678 41.82 18.308 22.337 57.271 60.966 106.314 111.687 141.414 51.899 35.941 112.695 55.089 176.18 55.089 82.464 0 160.058-32.079 218.505-90.356 58.278-58.278 90.356-136.041 90.356-218.505 0-17.804 14.443-32.246 32.246-32.246h95.397c48.538 0 94.221-19.147 128.818-53.577 34.598-34.598 53.577-80.281 53.577-128.818 0-48.538-19.147-94.221-53.577-128.818-34.598-34.598-80.281-53.577-128.818-53.577h-203.557v127.139c0 9.573-7.726 17.299-17.299 17.299h-54.249c-9.573 0-17.299-7.726-17.299-17.299v-10.917c0-9.573 7.726-17.299 17.299-17.299v0c9.573 0 17.299-7.726 17.299-17.299v-134.193c0-9.573 7.726-17.299 17.299-17.299h19.483c5.038 0 9.405 2.182 12.596 5.374h208.26c65.668 0 127.644 25.866 174.334 72.555s72.555 108.663 72.555 174.334c0 65.839-25.697 127.644-72.386 174.502v0zM956.314 409.953z"  horiz-adv-x="1024" />

    
    <glyph glyph-name="tiaojiadan" unicode="&#58981;" d="M556.8 716.8c-160 0-288-128-288-288 0-160 128-288 288-288 160 0 288 128 288 288 6.4 160-128 288-288 288zM723.2 486.4v-57.6l-134.4 0v-44.8h134.4v-57.6h-134.4v-83.2h-64v83.2h-128v57.6h134.4v44.8h-134.4v57.6h121.6l-83.2 96h70.4l57.6-57.6 57.6 57.6h70.4l-89.6-96h121.6zM556.8 896c-236.8 0-428.8-172.8-467.2-403.2h-89.6l153.6-268.8 70.4 185.6c0 12.8 0 64 6.4 76.8l-38.4-0c12.8 70.4 51.2 140.8 102.4 192 70.4 70.4 160 108.8 262.4 108.8 96 0 192-38.4 262.4-108.8 70.4-70.4 108.8-160 108.8-262.4 0-96-38.4-192-108.8-262.4-70.4-70.4-160-108.8-262.4-108.8v-102.4c256 0 467.2 211.2 467.2 467.2s-211.2 486.4-467.2 486.4z"  horiz-adv-x="1024" />

    
    <glyph glyph-name="supplier" unicode="&#58887;" d="M991.121 412.727c0 266.484-216.788 483.273-483.273 483.273s-483.273-216.788-483.273-483.273c0-127.428 49.938-243.16 130.811-329.598v-210.51l109.734-0.374 115.014 0.367 0.007 74.495c40.755-11.198 83.442-17.681 127.706-17.681 43.615 0 85.69 6.333 125.909 17.216l0.007-74.031 115.011-0.367 109.738 0.374 0 208.534c81.952 86.638 132.607 203.187 132.607 331.575zM324.644-69.039h-115.482v102.573c34.976-27.611 73.691-50.61 115.482-67.802v-34.771zM81.308 412.727c0 235.182 191.359 426.541 426.541 426.541s426.541-191.359 426.541-426.541c0-235.21-191.359-426.568-426.541-426.568s-426.541 191.358-426.541 426.568zM689.252-69.039v34.111c41.759 16.984 80.475 39.741 115.486 67.12v-101.231l-115.486-0zM390.354 685.262c-18.654 3.752-41.698 11.828-62.308 21.829-4.935-33.653-20.548-94.106-36.090-131.477-22.438-54.201-69.591-128.039-99.46-161.661 17.436-11.863 35.933-12.767 44.653-27.094 20.544 29.263 35.477 51.058 54.806 88.464v-204.364c0-44.841-3.109-98.433-6.893-133.945h56.092l0 443.599c19.33 39.234 42.373 78.498 49.875 85.965 13.044 13.077 12.435 16.186-0.674 18.685zM551.131 284.036c-19.33 6.248-36.765 14.327-55.487 23.683-19.935-39.87-82.852-114.007-129.552-142.661 26.156-6.861 47.985-20.58 53.593-32.407 99.007 110.902 118.333 129.587 127.728 133.949 18.65 8.107 18.045 13.074 3.718 17.436zM663.857 518.305c36.761-0.641 66.701-3.109 91.639-5.608v54.842c-25.547-2.503-54.877-5.002-91.639-5.612v92.18c0 20.58 2.499 32.404 8.715 36.156 8.787 4.967 8.111 9.969-2.432 9.969-23.11 0-37.438 0.605-56.092 3.714 1.894-13.683 2.499-43.588 2.499-97.179v-44.841h-89.139v91.572c0 20.544 2.503 32.408 8.787 36.121 8.72 5.002 8.044 9.969-2.499 9.969-23.047-0.609-38.051 0.645-56.7 3.752 1.824-14.327 2.499-31.763 2.499-97.183v-44.231c-29.94 1.218-55.483 3.109-81.638 5.612v-54.842c26.156 2.499 51.093 4.358 81.638 4.967v-139.556c-38.655 0.641-69.204 2.499-96.575 5.608v-56.666c46.091 4.358 110.902 6.217 196.257 6.217s150.772-1.858 196.863-6.217v56.666c-32.439-3.714-65.417-5.608-112.183-5.608v140.199zM616.547 378.107h-89.139v140.198h89.139v-140.198zM652.637 303.971l-42.307-31.763c36.090-32.404 84.071-90.963 111.511-131.446l49.804 42.373c-41.088 47.949-72.851 79.104-119.008 120.836z"  horiz-adv-x="1024" />

    
    <glyph glyph-name="jilu" unicode="&#58944;" d="M98.62267-129.697529c-1.320065-12.905938 11.187807-22.372543 23.211654-17.130146 14.3488 6.258541 149.092643 65.171302 211.833593 92.629677l-209.54241 154.6318C116.255259 30.645342 99.788216-118.301991 98.62267-129.697529zM144.499533 159.744629l240.561891-177.524183L772.318352 508.525244 531.755438 686.04738 144.499533 159.744629zM414.672836 69.029558l-25.907043 19.117406 19.0908 25.944905 25.90602-19.117406L414.672836 69.029558zM711.93203 473.021635 444.671057 109.7991l-25.907043 19.119453 267.261996 363.221512L711.93203 473.021635zM795.306926 617.375348 628.763842 740.276469c-20.441565 15.083533-49.221028 10.718109-64.281025-9.752108l-13.634532-18.532075 240.561891-177.523159 13.635555 18.532075C820.106752 573.469372 815.746444 602.291814 795.306926 617.375348zM385.002073-147.51943l543.221072 0 0 39.080064L385.002073-108.439366 385.002073-147.51943zM528.692682 79.145963l0-39.080064 399.530462 0 0 39.080064L528.692682 79.145963z"  horiz-adv-x="1024" />

    
    <glyph glyph-name="tuihuo" unicode="&#58936;" d="M504.029468 476.104857l138.028657 0 0-27.142174-138.028657 0 0 27.142174ZM504.029468 408.015086l138.028657 0 0-28.52773-138.028657 0 0 28.52773ZM512 747.361841c-247.071142 0-447.361841-200.290699-447.361841-447.361841 0-247.073188 200.290699-447.361841 447.361841-447.361841 247.072165 0 447.361841 200.289676 447.361841 447.361841C959.361841 547.071142 759.072165 747.361841 512 747.361841zM456.17967 269.524918 456.17967 478.408319c0 17.942651-0.917906 32.66598-1.840928 43.706431 11.964496-1.379417 23.466458-1.840928 43.712571-1.840928l149.524478 0c20.707624 0 32.210609 0.461511 44.630477 1.840928-1.840928-12.881378-2.303462-26.686802-2.303462-46.926776l0-98.459452c0-17.48728 0.461511-28.990265 0.924045-35.886325l29.901007-21.164019c-3.675716-2.303462-3.675716-2.303462-11.040451-8.744151-10.578939-8.744151-32.66598-25.307386-47.388287-35.886325 23.927969-18.405185 33.127492-26.686802 54.753021-47.850821l-30.825053-38.182624c-45.091988 46.00273-78.219479 73.152067-138.490168 113.638153l32.66598 32.204469c22.542412-15.178701 29.907147-20.239973 46.00887-32.66598 17.025769 11.964496 34.045397 25.307386 45.091988 35.430954-12.426007 0-13.343913 0-16.107863 0L504.029468 337.621852l0-89.25993c53.367465 13.343913 53.367465 13.343913 76.372412 21.164019l-1.379417-46.926776c-103.520725-28.52773-103.520725-28.52773-121.91977-35.886325L441.918875 235.01801C453.882348 241.458699 455.717136 245.603089 456.17967 269.524918zM349.437577 529.473345c36.347836-31.741935 54.753021-50.14712 81.439824-84.192517l-40.030715-35.424814c-27.604708 37.265742-42.788525 53.829999-78.213339 85.1094L349.437577 529.473345zM723.491809 122.759273c-44.167942-2.303462-77.757968-2.758834-163.329902-2.758834-89.25993 0-113.644293 5.061272-145.848763 30.362518-18.405185 14.260795-20.707624 15.646352-25.762757 15.646352-6.9022 0-16.564257-6.9022-30.369681-21.62553-2.758834-3.220345-11.040451-12.426007-24.384363-28.52773l-35.886325 41.410132c5.523807 5.061272 5.523807 5.061272 23.004947 20.246113 11.040451 9.661034 33.582863 26.225291 43.24492 31.741935L364.159884 312.775978l-24.839735 0c-13.343913 0-19.784602-0.461511-31.286564-2.303462l0 49.691749c11.958356-1.840928 19.322068-2.303462 36.804231-2.303462l34.506908 0c13.805424 0 24.384363 0.461511 34.968419 2.303462-1.379417-14.260795-1.840928-25.307386-1.840928-50.14712l0-100.762915c1.379417-0.917906 1.379417-0.917906 20.246113-14.722306 29.445636-21.62553 51.526537-26.225291 127.898949-26.225291 24.845874 0 63.952544 0.924045 100.762915 2.303462 34.506908 1.379417 49.230238 2.296299 76.372412 5.979178C728.553081 152.66642 727.174688 147.143637 723.491809 122.759273z"  horiz-adv-x="1024" />

    
    <glyph glyph-name="zyjilu" unicode="&#58987;" d="M774.093 545.28c56.073-17.052 108.195-31.688 159.489-48.8 54.014-18.090 76.386-51.52 67.055-113.256-23.5-156.35-88.436-282.439-234.416-356.63-14.201-7.229-31.674-12.846-34.392-29.059-15.266-91.126-87.776-94.054-155.103-97.961-59.574-3.483-120.047-0.423-179.516 5.756-47.809 5.001-92.823 21.033-101.209 80.006-3.966 27.602-27.706 34.993-48.379 46.202-138.033 74.943-200.265 198.341-224.037 347.672-9.81 61.752 11.616 98.142 70.903 119.373 132.158 47.284 268.464 59.619 417.691 58.371-75.636-113.964-212.090-40.041-294.728-109.352 104.288-62.954 476.618-64.832 589.291-2.959-47.644 64.681-95.589 0.705-142.602 1.141-52.122 0.482-104.241 0.106-172.007 0.106 72.224 85.326 136.636 161.637 201.306 237.737 43.933 51.716 89.428 102.124 131.871 155.027 31.028 38.702 59.306 40.612 98.879 10.321 41.829-32.019 28.758-59.814 4.66-92.356-51.088-68.978-101.481-138.529-154.76-211.338z"  horiz-adv-x="1024" />

    
    <glyph glyph-name="word" unicode="&#58907;" d="M625.472 679.464 625.472 612.504 935.44 612.504 935.44 569.256 625.472 569.256 625.472 499.496 935.44 499.496 935.44 456.248 625.472 456.248 625.472 387.888 935.44 387.888 935.44 344.64 625.472 344.64 625.472 276.28 935.44 276.28 935.44 233.032 625.472 233.032 625.472 164.672 935.44 164.672 935.44 121.424 625.472 121.424 625.472 53.072 935.44 53.072 935.44 9.824 625.472 9.824 625.472-79.464 1024-79.464 1024 679.464ZM0 703.184l0-806.368L577.04-212 577.04 812 0 703.184zM417.904 125.616 333.496 125.616l-53.968 238.56-67.808-238.56L153.6 125.616 70.576 477.176 153.6 477.176l33.208-219.032 55.352 241.352 87.176 0 47.048-263.672 49.816 263.672 83.024 0L417.904 125.616z"  horiz-adv-x="1024" />

    
    <glyph glyph-name="excel" unicode="&#58908;" d="M64.401776-40.213495l525.792121-107.74391L590.193897 752.785364 64.401776 645.040431 64.401776-40.213495zM204.1414 471.359786l242.60134 20.684088 0-57.313334-188.611705-11.216459 0-90.825588 173.367513 2.567475 0-53.788044-173.367513 1.655709 0-101.496625 192.323237-11.437493 0-57.407478-246.313895 20.999266L204.140377 471.359786zM628.982318 627.801814 628.982318 564.590144 874.639251 564.590144 874.639251 522.930325 628.982318 522.930325 628.982318 468.051437 874.639251 468.051437 874.639251 426.391618 628.982318 426.391618 628.982318 371.51273 874.639251 371.51273 874.639251 329.852912 628.982318 329.852912 628.982318 274.975047 874.639251 274.975047 874.639251 233.314205 628.982318 233.314205 628.982318 178.43634 874.639251 178.43634 874.639251 136.773452 628.982318 136.773452 628.982318 81.895587 874.639251 81.895587 874.639251 40.234745 628.982318 40.234745 628.982318-22.973856 956.525236-22.973856 956.525236 627.801814Z"  horiz-adv-x="1024" />

    
    <glyph glyph-name="arrow" unicode="&#58885;" d="M537.317 386.008l-142.25 142.257c-15.975 15.975-15.975 41.877 0 57.856 15.979 15.975 41.881 15.975 57.861 0l164.068-164.072c4.086-2.093 7.922-4.845 11.341-8.278 9.36-9.4 13.712-21.921 13.066-34.228-0.192-7.071-2.207-14.097-6.046-20.322-1.899-3.26-4.236-6.334-7.021-9.13l-167.85-168.891c-17.516-17.589-45.908-17.589-63.422 0-17.516 17.584-17.516 46.096 0 63.68l140.253 141.126z"  horiz-adv-x="1024" />

    
    <glyph glyph-name="yhuizong" unicode="&#58982;" d="M440.192 690.882v-564.228h-322.237v564.228h322.237zM883.27 731.184h-805.595v-644.832h485.077c8.9-14.485 19.249-27.984 30.84-40.302h-556.197v725.436h886.154v-356.932c-12.555 9.453-26.035 17.735-40.279 24.7v291.93zM480.472 126.654v161.208h56.225c-6.846-22.712-10.541-46.792-10.541-71.736 0-31.547 5.899-61.711 16.629-89.472h-62.313zM480.472 690.882h362.518v-161.208h-362.518v161.208zM842.99 454.75c-21.789 6.253-44.804 9.609-68.603 9.609-96.78 0-180.615-55.391-221.557-136.194h-72.359l-0 161.207h362.519v-34.622zM778.792 440.142c122.504 0 221.813-99.31 221.813-221.813s-99.31-221.813-221.813-221.813-221.813 99.31-221.813 221.813 99.309 221.813 221.813 221.813zM678.54 339.24l84.102-120.681-84.102-124.583v-19.304h210.254v64.155l-21.024-25.548h-132.972l82.966 120.361-73.874 105.6h109.674l35.23-39.741v63.585l-210.254-0v-23.844z"  horiz-adv-x="1024" />

    
    <glyph glyph-name="expanded" unicode="&#58911;" d="M64.697 487.223h894.606v-206.447h-894.606v206.447z"  horiz-adv-x="1024" />

    
    <glyph glyph-name="yanghu" unicode="&#58974;" d="M820 165.408c-5.36 0.224-141.488 0.32-234.96-96.752-10.512-10.88-9.808-27.92 1.52-38 5.392-4.816 12.208-7.184 19.008-7.184 7.488 0 15.008 2.88 20.496 8.624 75.856 78.784 191.104 79.52 193.44 79.52h0.224c15.328 0 27.792 11.856 27.952 26.624 0.16 14.848-12.224 27.008-27.68 27.168zM203.888 165.28c-15.408-0.16-27.76-12.256-27.648-27.104 0.112-14.768 12.64-26.672 27.984-26.672h0.176c2.432 0 120.064-0.752 192.784-79.088 5.536-5.968 13.2-8.976 20.896-8.976 6.624 0 13.28 2.256 18.592 6.832 11.52 9.904 12.528 26.896 2.24 37.968-90.272 97.2-229.216 97.328-235.024 97.040zM791.248 310.48c60.192 98.304 73.952 225.696 34.272 317.008-4.272 9.824-14.176 16.288-25.248 16.512l-8.56 0.080c-54.656 0-105.552-10.16-151.712-30.224-32.88 58.736-69.2 101.728-110.496 130.88-1.168 1.072-2.464 2.048-3.84 2.912-7.904 4.944-17.952 5.728-26.592 2.128-2.768-1.136-5.248-2.656-7.44-4.496-41.184-28.832-78.544-72.464-111.248-129.984-45.264 19.152-95.008 28.832-148.272 28.832l-8.416-0.080c-11.072-0.224-20.976-6.704-25.248-16.512-39.68-91.296-25.888-218.672 34.256-316.992 51.808-84.64 132.192-137.424 226.784-149.104 2.608-0.784 5.344-1.184 8.176-1.184h16.128v-133.344c0-14.864 12.528-26.896 27.952-26.896s27.936 12.016 27.952 26.896v133.344h16.56c2.848 0 5.584 0.432 8.24 1.136 94.592 11.68 174.944 64.496 226.752 149.088zM553.12 214.288c-0.624-0.080-1.232-0.16-1.808-0.272h-78.672c-0.608 0.112-1.232 0.192-1.84 0.272-101.088 10.832-159.040 73.168-189.888 123.536-47.216 77.184-61.536 178.064-37.152 252.352 49.52-1.568 95.072-13.040 135.44-34.16 6.704-3.504 14.544-4.24 21.808-2.016 7.264 2.208 13.248 7.152 16.624 13.712 27.744 53.936 58.8 95.28 92.544 123.184 33.712-27.968 64.112-69.008 92.464-124.768 3.376-6.64 9.456-11.664 16.784-13.872 7.296-2.16 15.264-1.392 22 2.208 41.248 22.16 87.872 34.16 138.768 35.744 24.384-74.272 10.064-175.168-37.152-252.368-30.832-50.384-88.816-112.736-189.92-123.552z"  horiz-adv-x="1024" />

    
    <glyph glyph-name="allyanshou" unicode="&#59628;" d="M116.778 101.169h-52.475c0.029-73.801 59.792-133.593 133.606-133.621v52.489c-44.809 0.072-81.073 36.339-81.131 81.132zM116.778 388.759h-52.475v-107.354h52.475v107.354zM64.302 569.2h52.475c0.087 44.806 36.322 81.072 81.13 81.146v52.46c-73.813 0-133.605-59.793-133.605-133.606zM116.778 245.606h-52.475v-107.369h52.475v107.369zM116.778 528.954h-52.475l0-107.383h52.475l-0 107.383zM802.737 481.524c-15.713-19.665-31.221-39.648-46.527-59.952h46.527v59.952zM627.384 658.012v44.808h-107.367v-52.473h98.447c2.944 2.551 5.918 5.114 8.92 7.666zM236.682-34.142h107.398v52.475l-107.398-0v-52.475zM750.293 138.237h52.444l-0 107.369h-52.444l0-107.369zM667.675 20.052v-52.504c73.784 0.029 133.577 59.82 133.577 133.621h-52.476c-0.088-44.823-36.323-81.045-81.101-81.117zM750.293 388.759v-107.354h52.444l-0 107.354h-52.444zM236.682 650.346h107.398v52.473l-107.398 0v-52.473zM379.82 650.346h107.37v52.473l-107.37 0v-52.473zM379.82-34.142h107.37v52.475l-107.37-0v-52.475zM520.017-34.142h107.367v52.475l-107.367-0v-52.475zM938.853 802.143c-246.050-150.88-424.609-341.217-504.838-436.735l-196.459 153.926-86.758-69.951 339.483-345.255c58.423 149.654 243.481 442.157 469.416 649.987l-20.844 48.029z"  horiz-adv-x="1024" />

    
    <glyph glyph-name="dphuizong" unicode="&#59676;" d="M270.931 142.942h585.444v344.369h-68.866v-309.936h-103.322v206.635h-68.865v-206.635h-103.321v241.076h-68.882v-241.076h-103.306v206.635h-68.881v-206.635h-68.881v344.382h-34.426v-378.816h34.426zM64.303 762.819v-757.639h895.393l-0 757.639h-895.393zM684.186 728.379h68.882v-68.875h-68.882v68.875zM890.815 74.068h-757.632v551.004h757.632v-551.004zM890.815 659.505h-68.867v68.875h68.867v-68.875z"  horiz-adv-x="1024" />

    
    <glyph glyph-name="xinxi" unicode="&#59067;" d="M767.576 554.956 256.01 554.956c-23.563 0-42.631-19.067-42.631-42.631 0-23.563 19.068-42.63 42.631-42.63l511.566 0c23.565 0 42.63 19.067 42.63 42.63C810.206 535.889 791.142 554.956 767.576 554.956zM980.728 219.527 980.728 810.74c0 47.084-38.171 85.26-85.26 85.26l-767.35 0C81.035 896 42.857 857.824 42.857 810.74l0-852.61c0-47.088 38.178-85.263 85.261-85.263l502.874 0c13.555-2.77 28.191 1.097 38.711 11.616l298.955 298.953C978.501 193.283 982.522 206.733 980.728 219.527zM682.314 17.661 682.314 171.282l153.623 0L682.314 17.661zM639.684 256.544c-23.561 0-42.63-19.068-42.63-42.633 0-0.076 0.006-0.151 0.008-0.229-0.002-0.077-0.008-0.153-0.008-0.229l0-255.325L170.748-41.872c-23.561 0-42.63 19.066-42.63 42.63l0 767.35c0 23.563 19.07 42.631 42.63 42.631l682.087 0c23.565 0 42.632-19.068 42.632-42.631l0-511.565L639.684 256.543zM767.576 725.478 256.01 725.478c-23.563 0-42.631-19.067-42.631-42.631 0-23.563 19.068-42.631 42.631-42.631l511.566 0c23.565 0 42.63 19.068 42.63 42.631C810.206 706.411 791.142 725.478 767.576 725.478z"  horiz-adv-x="1024" />

    
    <glyph glyph-name="fanhui" unicode="&#58918;" d="M129.7936 556.856883 442.576349 244.836497 442.576349 433.874921c94.677313 0 335.944262-2.188852 335.944262-259.381515 0-134.719284-92.14156-247.070118-214.614939-273.056979 196.783829 27.66713 348.953553 200.748117 348.953553 412.411841 0 393.181871-405.050176 396.48101-470.282876 396.48101L442.576349 871.258503 129.7936 556.856883z"  horiz-adv-x="1024" />

    
    <glyph glyph-name="xitongguanli" unicode="&#59035;" d="M896 149.376 128 149.376c-70.656 0-128 57.28-128 127.936L0 704c0 70.656 57.344 128 128 128l768 0c70.656 0 128-57.344 128-128l0-426.688C1024 206.656 966.656 149.376 896 149.376L896 149.376 896 149.376zM160 0l227.584 0c18.048 27.072 35.648 85.312 71.104 85.312l106.688 0c35.456 0 53.056-58.24 71.04-85.312L864 0c17.664 0 32-14.336 32-32l0 0c0-17.664-14.336-32-32-32l-704 0C142.336-64 128-49.664 128-32l0 0C128-14.336 142.336 0 160 0L160 0z"  horiz-adv-x="1024" />

    
    <glyph glyph-name="weixin" unicode="&#58991;" d="M237.222 574.574c0-23.687 19.202-42.891 42.891-42.891s42.891 19.202 42.891 42.891c0 0 0 0 0 0 0 23.687-19.202 42.891-42.891 42.891-23.687 0-42.891-19.202-42.891-42.891 0 0 0 0 0 0zM571.27 352.778c0-18.544 15.033-33.575 33.575-33.575s33.575 15.033 33.575 33.575c0 18.544-15.033 33.575-33.575 33.575-18.544 0-33.575-15.033-33.575-33.575zM456.005 574.574c0-23.687 19.202-42.891 42.891-42.891s42.891 19.202 42.891 42.891c0 0 0 0 0 0 0 23.687-19.202 42.891-42.891 42.891-23.687 0-42.891-19.202-42.891-42.891 0 0 0 0 0 0zM855.585 896.445h-688.337c-91.135 0-165.018-74.124-165.018-165.561v-687.481c0-91.437 73.883-165.561 165.018-165.561h688.337c91.136 0 165.018 74.124 165.018 165.561v687.479c0.001 91.438-73.881 165.562-165.018 165.562zM384.389 214.015c-38.538 0-69.529 7.872-108.148 15.501l-107.929-54.116 30.877 92.875c-77.295 54.022-123.546 123.627-123.546 208.449 0 146.902 139.024 262.571 308.746 262.571 151.811 0 284.802-92.429 311.519-216.827-9.824 1.098-19.724 1.813-29.729 1.813-146.66 0-262.491-109.453-262.491-244.339 0-22.449 3.494-44.069 9.527-64.695-9.527-0.75-19.136-1.232-28.826-1.232zM839.821 105.866l23.223-77.159-84.691 46.388c-30.878-7.741-61.894-15.503-92.64-15.503-146.896 0-262.597 100.406-262.597 224.055 0 123.443 115.699 224.062 262.597 224.062 138.737 0 262.254-100.619 262.254-224.062 0-69.632-46.172-131.289-108.145-177.781zM739.511 352.778c0-18.544 15.033-33.575 33.575-33.575s33.575 15.033 33.575 33.575c0 18.544-15.033 33.575-33.575 33.575-18.544 0-33.575-15.033-33.575-33.575z"  horiz-adv-x="1024" />

    
    <glyph glyph-name="period" unicode="&#58997;" d="M512.527 866.48c-270.045 0-488.765-218.914-488.765-488.765s218.914-488.765 488.765-488.765c270.045 0 488.765 218.914 488.765 488.765 0 270.045-218.914 488.765-488.765 488.765zM512.527-56.611c-239.822 0-434.21 194.406-434.21 434.21s194.406 434.21 434.21 434.21c239.822 0 434.21-194.406 434.21-434.21 0-239.822-194.406-434.21-434.21-434.21zM335.278 261.302l33.347-26.198c-36.815-39.69-70.41-73.038-100.67-100.059-7.677 8.745-17.299 18.422-28.977 28.977 34.618 29.543 66.668 62.036 96.276 97.361zM243.39 308.891h51.436v252.665h-44.815v37.209h44.815v66.668h40.47v-66.668h113.726v68.892h40.47v-68.892h44.378v-37.209h-44.378v-252.665h43.795v-37.209h-289.791v37.209zM335.278 500.739h113.726v60.661h-113.726v-60.661zM335.278 405.090h113.726v60.661h-113.726v-60.661zM335.278 308.891h113.726v61.292h-113.726v-61.292zM406.966 235.494l26.198 26.809c25.479-18.95 49.54-38.074 72.199-57.486l-28.977-31.243c-20.381 20.381-43.541 41.058-69.466 61.782zM562.274 652.283h193.641v-443.521c0-43.015-20.381-64.586-61.292-64.586-20.381 0-40.47 0.547-60.124 1.634-1.437 12.062-3.623 26.135-6.582 42.103 26.596-2.566 45.819-3.782 57.486-3.782 20.071 0 30.164 9.956 30.164 30.164v114.812h-117.012c-4.031-79.771-28.287-146.22-72.8-199.097-9.937 10.178-20.769 20.381-32.907 30.59 29.543 33.873 48.254 69.073 56.332 105.568 8.745 35.020 13.148 95.921 13.148 182.655v203.458zM600.795 365.195h114.571v107.227h-112.691c0.006-46.93-0.005-82.83-1.86-107.227zM715.327 615.118h-112.691v-106.706h112.691v106.706z"  horiz-adv-x="1024" />

    
    <glyph glyph-name="sdkgongju" unicode="&#59012;" d="M939.02 425.553c-5.834 0-11.36-1.184-16.523-3.318l0 0.001-0.007-0.004c-0.002-0.001-0.005-0.002-0.007-0.004l-399.872-165.437-399.872 165.394c-0.004 0.001-0.006 0.002-0.222 0.004l-0.007 0.004 0-0.001c-5.038 2.113-10.613 3.318-16.453 3.318-23.83 0-43.083-19.27-43.083-43.083 0-17.991 11.004-33.338 26.651-39.787l416.361-172.278c0.004-0.002 0.006-0.002 0.222-0.005l0.007-0.002c5.038-2.115 10.613-3.318 16.453-3.318 5.886 0 11.401 1.183 16.453 3.318l0.007 0.002c0.005 0.002 0.007 0.002 0.237 0.005l416.295 172.278c15.613 6.516 26.609 21.915 26.609 39.845 0 23.83-19.276 43.083-43.083 43.083zM89.212 529.427l0-0.001 416.361-172.278c0.004 0 0.006-0.002 0.222-0.002l0.007-0.005 0 0.002c5.038-2.115 10.613-3.318 16.453-3.318 5.886 0 11.401 1.183 16.453 3.318l0-0.002 0.007 0.005c0.005 0 0.007 0.002 0.237 0.002l416.295 172.293c15.613 6.479 26.609 21.846 26.651 39.782 0 17.991-11.004 33.338-26.651 39.782l0 0.001-416.295 172.278c-0.005 0.001-0.007 0.002-0.237 0.004l-0.007 0.004 0-0.001c-5.033 2.113-10.601 3.318-16.453 3.318-5.834 0-11.36-1.184-16.453-3.318l0 0.001-0.007-0.004c-0.004-0.001-0.006-0.002-0.222-0.004l-416.361-172.285c-15.633-6.479-26.629-21.846-26.629-39.782s11.004-33.347 26.629-39.787zM939.02 238.723c-5.834 0-11.36-1.183-16.523-3.318l-0.007-0.002c-0.002 0-0.005-0.002-0.007-0.002l-399.872-165.437-399.872 165.394c-0.004 0.002-0.006 0.002-0.222 0.005l-0.007 0.002c-5.038 2.112-10.613 3.318-16.453 3.318-23.83 0-43.083-19.276-43.158-43.083 0-17.991 11.004-33.338 26.629-39.782l416.361-172.278c0.004-0.002 0.006-0.002 0.222-0.005l0.007-0.002c5.038-2.115 10.613-3.318 16.453-3.318 5.886 0 11.321 1.183 16.453 3.318l0.007 0.002c0.005 0.002 0.007 0.002 0.237 0.005l416.295 172.278c15.643 6.479 26.651 21.846 26.651 39.782 0 23.854-19.276 43.073-43.083 43.073z"  horiz-adv-x="1024" />

    
    <glyph glyph-name="8" unicode="&#58899;" d="M231.424 623.616l540.672 0 0-59.392-540.672 0 0 59.392ZM606.208 693.248l43.008 0 0-118.784-43.008 0 0 118.784ZM354.304 693.248l43.008 0 0-118.784-43.008 0 0 118.784ZM231.424 523.264 231.424 97.28l540.672 0L772.096 523.264 231.424 523.264zM364.544 130.048l-106.496 0 0 106.496 106.496 0L364.544 130.048zM364.544 257.024l-106.496 0L258.048 363.52l106.496 0L364.544 257.024zM364.544 384l-106.496 0 0 106.496 106.496 0L364.544 384zM489.472 130.048l-106.496 0 0 106.496 106.496 0L489.472 130.048zM489.472 257.024l-106.496 0L382.976 363.52l106.496 0L489.472 257.024zM489.472 384l-106.496 0 0 106.496 106.496 0L489.472 384zM614.4 130.048l-106.496 0 0 106.496L614.4 236.544 614.4 130.048zM614.4 257.024l-106.496 0L507.904 363.52 614.4 363.52 614.4 257.024zM614.4 384l-106.496 0 0 106.496L614.4 490.496 614.4 384zM739.328 130.048l-106.496 0 0 106.496 106.496 0L739.328 130.048zM739.328 257.024l-106.496 0L632.832 363.52l106.496 0L739.328 257.024zM739.328 384l-106.496 0 0 106.496 106.496 0L739.328 384z"  horiz-adv-x="1024" />

    
    <glyph glyph-name="shangpin1" unicode="&#58926;" d="M773.491712 684.756992c-72.566784-5.677056-137.873408-10.728448-195.922944-15.147008-24.610816-1.890304-49.062912-3.781632-73.353216-5.677056-24.295424-1.891328-46.377984-3.470336-66.253824-4.729856-19.87584-1.262592-36.59776-2.527232-50.164736-3.785728-13.566976-1.263616-21.613568-1.896448-24.136704-1.896448-3.15392-0.630784-6.782976-1.1008-10.88512-1.416192-4.103168-0.316416-7.727104-1.10592-10.886144-2.369536l-11.355136-3.781632-41.648128 18.92864c3.15392 4.41344 6.941696 8.516608 11.359232 12.302336 3.15392 3.15392 7.098368 6.151168 11.829248 8.989696 4.734976 2.843648 9.626624 4.576256 14.671872 5.208064 3.787776 0.631808 13.883392 1.574912 30.287872 2.838528 16.405504 1.263616 36.59776 2.838528 60.576768 4.734976 0 8.200192 0.784384 19.402752 2.36544 33.596416 1.579008 14.198784 5.36064 28.238848 11.359232 42.121216 5.993472 13.882368 14.667776 26.185728 26.027008 36.913152 11.355136 10.723328 26.817536 17.037312 46.377984 18.92864 22.714368 1.891328 41.168896-1.579008 55.36768-10.412032 14.198784-8.832 25.2416-19.718144 33.125376-32.653312 7.88992-12.934144 13.40928-26.185728 16.5632-39.75168 3.154944-13.566976 5.050368-24.13568 5.677056-31.709184 27.133952 1.896448 49.69472 3.470336 67.67616 4.734976 17.984512 1.262592 27.923456 2.20672 29.81376 2.838528 6.941696 0.630784 14.672896-0.631808 23.189504-3.787776 8.520704-3.15392 15.30368-7.257088 20.349952-12.302336 1.263616-1.263616 2.997248-3.154944 5.203968-5.677056 2.21184-2.528256 4.25984-5.050368 6.156288-7.573504C769.390592 691.697664 771.597312 688.54272 773.491712 684.756992L773.491712 684.756992zM511.314944 797.387776c-11.992064-1.263616-21.613568-5.51936-28.870656-12.777472-7.257088-7.257088-12.777472-15.931392-16.5632-26.027008-3.785728-10.095616-6.309888-20.349952-7.573504-30.761984-1.258496-10.412032-1.890304-18.76992-1.890304-25.084928 19.559424 1.263616 39.593984 2.843648 60.101632 4.734976 20.507648 1.891328 40.542208 3.47136 60.102656 4.733952-0.631808 5.679104-2.054144 13.56288-4.260864 23.658496-2.20672 10.095616-5.834752 19.87584-10.886144 29.344768-5.045248 9.464832-11.670528 17.349632-19.87584 23.663616C533.399552 795.181056 523.301888 798.019584 511.314944 797.387776L511.314944 797.387776zM881.389568 101.718016c3.154944-17.665024 2.680832-32.33792-1.417216-44.008448-4.10112-11.676672-15.619072-19.72224-34.547712-24.136704-6.309888-1.8944-20.03456-5.050368-41.174016-9.463808-21.13536-4.41856-46.37696-9.780224-75.717632-16.094208-29.339648-6.309888-60.73344-13.092864-94.176256-20.344832-33.43872-7.257088-65.465344-14.041088-96.068608-20.349952-30.599168-6.309888-58.048512-11.992064-82.342912-17.038336-24.295424-5.050368-41.486336-8.520704-51.581952-10.411008-23.3472-5.050368-40.542208-3.470336-51.585024 4.733952-11.039744 8.201216-16.5632 20.503552-16.5632 36.91008L336.21504 562.661376c0 15.773696 3.31264 28.551168 9.936896 38.331392 6.626304 9.7792 16.247808 14.987264 28.87168 15.614976 5.045248 0 11.196416 0.316416 18.453504 0.948224 7.257088 0.630784 14.35648 1.262592 21.298176 1.890304 8.200192 0.631808 16.720896 1.263616 25.55392 1.896448l8.516608-135.3472c-0.631808-0.630784-1.891328-0.9472-3.785728-0.9472-1.25952 0-3.154944-0.15872-5.677056-0.474112-2.523136-0.316416-5.361664-0.474112-8.516608-0.474112-13.251584-1.25952-19.560448-9.148416-18.932736-23.663616 0.631808-5.677056 1.263616-13.565952 1.8944-23.662592 0.631808-10.095616 1.10592-20.661248 1.417216-31.706112 0.315392-11.042816 0.790528-21.766144 1.421312-32.178176 0.631808-10.412032 1.263616-18.77504 1.891328-25.084928 0.631808-11.986944 2.528256-18.76992 5.682176-20.349952 3.154944-1.575936 10.095616-2.36544 20.819968-2.36544l13.249536 0c3.787776 0 7.414784 0.156672 10.886144 0.474112 3.470336 0.315392 7.414784 0.631808 11.834368 0.9472 4.41344 0.316416 10.095616 0.785408 17.032192 1.417216 13.254656 1.263616 21.771264 4.103168 25.558016 8.520704 3.785728 4.41344 5.36064 11.03872 4.729856 19.87584 0 4.41344-0.470016 12.145664-1.417216 23.18848-0.9472 11.039744-1.896448 22.557696-2.838528 34.54464-0.9472 11.992064-1.737728 23.3472-2.369536 34.074624-0.627712 10.727424-1.25952 18.300928-1.891328 22.714368-1.262592 7.573504-2.838528 12.934144-4.733952 16.090112-1.891328 3.15392-5.361664 4.41856-10.412032 3.785728-2.523136 0-5.045248-0.15872-7.569408-0.474112-2.522112-0.315392-5.050368-0.468992-7.57248-0.468992l-7.573504 0-8.516608 134.398976c42.907648 3.785728 82.342912 6.941696 118.308864 9.463808 15.147008 1.263616 30.446592 2.523136 45.903872 3.787776 15.4624 1.262592 29.817856 2.36544 43.06944 3.31264 13.25056 0.9472 24.921088 1.896448 35.018752 2.838528 10.095616 0.9472 17.66912 1.737728 22.714368 2.369536 18.300928 1.25952 32.809984-1.895424 43.538432-9.469952 10.728448-7.56736 17.353728-18.927616 19.876864-34.069504 0.630784-5.050368 2.838528-20.191232 6.62528-45.433856 3.785728-25.238528 8.520704-55.5264 14.198784-90.860544 5.677056-35.33824 11.671552-73.353216 17.980416-114.05312 6.309888-40.69888 12.30848-78.713856 17.985536-114.052096 5.677056-35.334144 10.569728-65.622016 14.671872-90.860544C877.44512 121.910272 880.130048 106.768384 881.389568 101.718016L881.389568 101.718016zM286.048256 19.37408c0-8.832 0.474112-16.5632 1.421312-23.18848 0.9472-6.62528 2.050048-11.829248 3.31264-15.616 1.25952-5.050368 2.838528-8.836096 4.729856-11.360256-15.773696 8.205312-30.915584 16.405504-45.42976 24.610816-12.618752 6.941696-25.238528 14.040064-37.85728 21.29408-12.623872 7.257088-23.3472 13.408256-32.183296 18.458624-16.406528 9.464832-27.608064 20.825088-33.600512 34.074624-5.994496 13.25056-7.410688 27.129856-4.256768 41.643008 1.25952 3.787776 4.098048 17.66912 8.516608 41.643008 4.41856 23.979008 9.938944 53.00736 16.5632 87.078912 6.62528 34.074624 13.565952 70.672384 20.824064 109.792256 7.257088 39.119872 14.040064 75.717632 20.349952 109.792256 6.309888 34.074624 11.829248 63.415296 16.5632 88.026112 4.729856 24.605696 7.410688 39.119872 8.042496 43.538432 2.522112 13.878272 7.098368 24.605696 13.724672 32.1792 6.62528 7.573504 14.355456 9.463808 23.18848 5.677056 5.050368-2.523136 9.148416-5.361664 12.302336-8.516608 1.896448-1.896448 3.154944-3.470336 3.787776-4.734976L286.047232 19.37408 286.048256 19.37408zM286.048256 19.37408"  horiz-adv-x="1024" />

    
    <glyph glyph-name="baocun" unicode="&#58891;" d="M899.072-76.8h-774.144c-40.718 0-73.728 33.010-73.728 73.728v774.144c0 40.718 33.010 73.728 73.728 73.728h110.592v-268.288h552.96v268.288h110.592c40.718 0 73.728-33.010 73.728-73.728v-774.144c0-40.718-33.010-73.728-73.728-73.728zM815.104 361.472c0 40.718-33.010 73.728-73.728 73.728l-459.776 0.41c-40.718 0-73.728-33.010-73.728-73.728v-276.48c0-40.718 33.010-73.728 73.728-73.728h460.8c40.718 0 73.728 33.010 73.728 73.728l-1.024 276.070zM666.829 90.931l-310.477 0.205c-34.611 0-61.44 26.829-61.44 61.44v141.312c0 34.611 26.829 61.44 61.44 61.44h311.296c34.611 0 61.85-27.034 61.85-61.645v-140.083c0-34.611-28.058-62.669-62.669-62.669zM694.272 689.152v0-4.096h-0.207c-2.118-32.014-28.684-57.344-61.233-57.344-32.551 0-59.116 25.33-61.233 57.344h-0.207v102.4h0.207c2.118 32.014 28.682 57.344 61.233 57.344 32.549 0 59.116-25.33 61.233-57.344h0.207v-98.304z"  horiz-adv-x="1024" />

    
    <glyph glyph-name="cxiaoshou" unicode="&#58958;" d="M581.471 789.688l59.492-47.45 76.187 5.323c77.014 5.479 68.435 9.924 91.178-72.207l20.261-73.449 64.817-40.367c65.228-40.833 60.991-32.2 31.115-112.058l-26.773-71.275 28.634-70.658c28.944-71.639 30.598-62.025-40.627-109.164l-63.576-41.868-18.299-74.018c-18.71-74.843-11.784-68.121-96.861-64.297l-76.187 3.411-58.354-48.999c-59.080-49.724-49.62-48.379-116.247 4.754l-59.441 47.45-76.084-5.375c-77.015-5.479-68.486-9.82-91.178 72.362l-20.364 73.397-64.661 40.524c-65.49 40.731-61.148 32.046-31.168 111.954l26.724 71.176-28.635 70.708c-28.996 71.535-30.548 62.025 40.627 109.059l63.42 41.971 18.453 74.017c18.555 74.896 11.835 68.124 97.017 64.298l75.877-3.411 58.511 49.206c59.024 49.542 49.567 48.171 116.14-5.013v0zM240.281 362.077v-74.068c0-39.386 26.62-58.821 79.908-58.821 55.202 0 82.856 21.606 82.856 64.61v41.299c0 14.474-4.032 27.292-12.148 38.559-8.063 11.268-27.135 31.116-56.959 59.647-16.023 16.024-24.087 30.082-24.087 42.073l-1.448 21.088c0 12.249 4.342 18.298 12.819 18.298 7.236 0 10.803-3.205 10.803-9.614v-59.544h65.074l-0 56.236c0 38.352-24.707 57.477-74.17 57.477-55.1 0-82.649-20.985-82.649-63.059v-36.389c0-12.198 3.722-23.259 11.164-33.287 7.339-10.131 26.154-29.874 56.546-59.336 15.765-15.817 23.622-29.566 23.622-41.3v-38.559c0-7.34-4.342-11.062-12.871-11.062-9.097 0-13.594 3.722-13.594 11.164l0 74.588h-64.866zM569.944 231.978v209.285c0 36.956-23.88 55.46-72 55.46-51.223 0-76.911-17.781-76.911-53.239v-52.565h62.179c0 3.722-0.31 9.355-1.034 16.694-0.361 7.443-0.464 13.026-0.464 16.851 0 20.935 4.185 31.479 12.661 31.479 7.443 0 11.113-4.342 11.113-12.922v-38.972c0-4.498-7.546-10.544-22.381-18.091-25.844-13.129-43.055-24.189-51.532-32.976-8.633-8.684-12.767-18.918-12.767-30.652v-52.927c0-27.498 17.573-41.248 52.616-41.248 22.899 0 36.698 4.652 41.556 13.854v-10.029l56.96 0zM505.49 280.979v67.763c-14.835-3.722-22.278-10.235-22.278-20.004v-47.76c0-7.96 3.824-11.992 11.631-11.992 7.080 0 10.648 4.032 10.648 11.992v0zM650.059 231.978v324.548h-64.298v-324.548h64.298zM815.666 343.16v100.325c0 35.458-25.222 53.239-75.773 53.239-50.138 0-75.051-18.504-75.051-55.46v-157.595c0-37.009 24.913-55.513 75.051-55.513 50.549 0 75.773 17.781 75.773 53.342v53.394h-64.505v-52.671c0-8.787-3.617-13.232-10.854-13.232-7.236 0-10.854 4.445-10.854 13.232v60.941l86.214-0.001zM751.16 382.596v60.423c0 8.58-3.617 12.922-10.854 12.922-7.236 0-10.854-4.342-10.854-12.922v-60.423h21.708zM157.374 424.67c0 0 2.74 30.238 8.994 63.783 6.202 33.546 68.331 99.394 68.331 99.394s-96.965-59.335-104.719-70.035c-7.597-10.752 27.394-93.141 27.394-93.141z"  horiz-adv-x="1024" />

    
    <glyph glyph-name="tyanshou" unicode="&#58999;" d="M127.9744 13.6448c-32.1024 0-58.3424 26.5984-58.3424 59.1104L69.632 725.888c0 32.7424 26.2144 59.1616 58.3424 59.1616L199.168 785.0496c10.7776 0 19.456 8.7808 19.456 19.712 0 10.9312-8.6784 19.712-19.456 19.712L127.9744 824.4736C74.3424 824.4736 30.72 780.2624 30.72 725.9136L30.72 72.96c0-54.4 43.6224-98.6112 97.2544-98.6112l282.9312 0-38.7328 39.296L127.9744 13.6448 127.9744 13.6448 127.9744 13.6448zM796.3648 725.888c0 54.3744-43.5968 98.56-97.2544 98.56l-70.5024 0c-10.7776 0-19.456-8.8064-19.456-19.712 0-10.9312 8.6784-19.7376 19.456-19.7376l70.5024 0c32.128 0 58.368-26.5728 58.368-59.136l0-153.1904 38.912-39.424L796.3648 725.888 796.3648 725.888 796.3648 725.888zM604.5952 709.1712 222.4896 709.1712c-24.1408 0-43.5968-19.6864-43.5968-44.16s19.456-44.1856 43.5968-44.1856l382.08 0c24.0128 0 43.648 19.712 43.648 44.1856S628.7872 709.1712 604.5952 709.1712L604.5952 709.1712 604.5952 709.1712zM529.9456 805.0944c0 38.912-31.1296 70.4256-69.504 70.4256l-93.7984 0c-38.3744 0-69.4528-31.5136-69.4528-70.4256l0-100.3008 232.7552 0L529.9456 805.0944 529.9456 805.0944 529.9456 805.0944zM413.5424 742.6304c-25.3696 0-46.0288 20.9408-46.0288 46.6176 0 25.728 20.6592 46.6688 46.0288 46.6688 25.344 0 46.0032-20.9408 46.0032-46.6688C459.5456 763.5712 438.8864 742.6304 413.5424 742.6304L413.5424 742.6304 413.5424 742.6304zM628.2496 514.304c0-12.0064-21.632-21.6832-48.3584-21.6832L228.48 492.6208c-26.6752 0-48.3584 9.7024-48.3584 21.6832l0 0c0 11.9808 21.6576 21.6576 48.3584 21.6576l351.4368 0C606.6432 535.9616 628.2496 526.2848 628.2496 514.304L628.2496 514.304 628.2496 514.304zM628.2496 332.4416c0-12.0064-21.632-21.6576-48.3584-21.6576L228.48 310.784c-26.6752 0-48.3584 9.6768-48.3584 21.6576l0 0c0 12.0064 21.6576 21.6576 48.3584 21.6576l351.4368 0C606.6432 354.1248 628.2496 344.448 628.2496 332.4416L628.2496 332.4416 628.2496 332.4416zM587.8784 150.6304c0-12.0064 18.7648-21.7088-7.9872-21.7088L228.48 128.9216c-26.6752 0-48.3584 9.7024-48.3584 21.7088l0 0c0 11.9552 21.6576 21.632 48.3584 21.632l351.4368 0C606.6432 172.288 587.8784 162.5856 587.8784 150.6304L587.8784 150.6304 587.8784 150.6304zM837.2992 273.9712c11.9552 3.4048 23.424 6.784 34.4832 10.1888 9.6 2.9184 19.4048 5.8368 29.4656 8.7552 10.0608 2.944 18.4064 5.5808 25.088 7.9872l-10.0608-38.5536c-2.8672-10.7008-5.504-18.7136-7.8848-24.0896-4.8128-13.056-10.4192-25.216-16.896-36.3776-6.4256-11.1616-12.5696-20.8384-18.3296-29.1328-6.7072-9.7024-13.6448-18.6624-20.8128-26.9056l-88.3712-26.9312 72.5504-13.1072c-9.6-8.2432-19.84-16.7424-30.8736-25.4464-9.6-7.296-20.48-14.9248-32.6912-22.9376s-25.0112-15.4368-38.4-22.2464c-13.4144-6.784-28.3904-10.2656-44.9536-10.5728-16.512-0.256-32.1792 0.8448-47.0528 3.2768-17.2544 2.432-34.4576 6.528-51.712 12.3904 5.248 8.2176 11.008 17.4848 17.2288 27.6736 5.2736 8.7552 11.5968 19.072 19.0464 30.9504 7.424 11.904 15.1808 25.1392 23.3472 39.68 22.9632 39.3472 45.2096 77.9008 66.816 115.7376 21.5296 37.8624 40.9344 72.1152 58.1632 102.656 19.6608 35.4304 38.5792 68.9152 56.7808 100.48-22.528-26.1632-46.2336-55.5776-71.1168-88.0896-21.5808-27.6736-45.5168-60.544-71.8848-98.6368-26.3424-38.0672-53.1712-79.7184-80.4608-124.8768-5.76-9.1904-12.2368-19.8912-19.4048-32-7.168-12.16-14.72-25.0368-22.6304-38.6048-7.8848-13.5936-16-27.5456-24.3968-41.856-8.3968-14.3104-16.6656-28.288-24.8064-41.856-19.1744-31.5392-38.8096-64.5632-58.9568-99.0208 0.512 10.1888 2.432 23.296 5.7856 39.3216 2.8416 13.5936 7.6544 30.5664 14.3616 50.9696 6.6816 20.3776 16.3072 44.416 28.7488 72.064 8.1152 17.4848 14.3872 31.0528 18.6624 40.7296 4.3264 9.728 7.7056 17.2544 10.0608 22.6048 2.4064 5.8112 4.2752 9.728 5.76 11.6736-2.4064 2.8672-2.8928 8.704-1.4592 17.4592 0.9984 7.7568 3.7632 19.0208 8.2944 33.8432 4.5568 14.7968 12.3392 35.5328 23.3472 62.2336 11.008 27.1872 25.5232 56.448 43.4688 87.7312 17.9456 31.3088 38.2208 62.3616 60.7232 93.184 22.5024 30.8224 46.9248 60.672 73.2672 89.5744 26.368 28.8768 53.2992 54.4768 80.8192 76.8 27.5968 22.3232 55.1168 40.6272 82.6624 54.9888 27.4944 14.3104 54.2208 22.4512 80.1024 24.3712 0.4608-16.9728-1.1776-39.4752-5.0176-67.3536-3.8144-27.8784-8.6528-57.7536-14.4128-89.5744-5.7088-31.7696-12.1856-64.0512-19.3536-96.7936-7.2192-32.768-14.1568-62.4896-20.864-89.1648L837.2992 273.9712 837.2992 273.9712z"  horiz-adv-x="1024" />

    
    <glyph glyph-name="iconfonthaitaobi" unicode="&#58881;" d="M988.249 199.5c-21.634 0 21.732 0 0.099 0M512.256 895.116C230.689 895.116 1.625 666.051 1.625 384.459c0-281.568 229.064-510.631 510.632-510.631 95.158 0 184.311 26.168 260.658 71.672-52.641 0-105.283 0-157.924 0-33.012-7.724-67.402-11.826-102.735-11.826-248.558 0-450.786 202.228-450.786 450.81S263.698 835.221 512.256 835.221c248.583 0 450.81-202.154 450.81-450.737 0-65.886-14.208-128.514-39.718-184.984 21.634 0 43.268 0 64.901 0 22.373 57.377 34.664 119.759 34.664 184.959C1022.912 666.051 793.849 895.116 512.256 895.116zM696.651 457.588l-53.055 0 67.534 114.148c1.501 2.47 1.816 5.497 0.993 8.668-1.283 4.916-5.254 9.638-10.558 12.64l-19.057 10.655c-9.057 5.085-20.123 3.85-23.9-2.519l-84.945-143.642-122.815 0-0.799 1.356-84.17 142.334c-3.705 6.271-14.94 7.506-23.778 2.47l-19.154-10.703c-5.279-2.954-9.226-7.676-10.533-12.592-0.848-3.172-0.509-6.198 0.944-8.668l67.608-114.172L327.96 457.563c-10.412 0-18.887-8.475-18.887-18.912l0-21.648c0-10.388 8.475-18.839 18.887-18.839l154.611 0 0-114.123-154.613 0c-10.412 0-18.887-8.476-18.887-18.863l0-21.672c0-10.389 8.475-18.863 18.887-18.863l154.611 0 0-111.291c0-10.389 8.451-18.839 18.839-18.839l21.744 0c10.364 0 18.815 8.45 18.815 18.839L541.967 224.644l154.684 0c10.388 0 18.814 8.475 18.814 18.863l0 21.672c0 10.363-8.427 18.863-18.814 18.863l-154.683 0L541.968 398.165l154.684 0c10.388 0 18.814 8.451 18.814 18.839l0 21.648C715.466 449.088 707.039 457.588 696.651 457.588zM738.5 95.513l270 0 0-59.013-270 0 0 59.013Z"  horiz-adv-x="1024" />

    
    </font>
</defs>
</svg>
